<?xml version="1.0" encoding="us-ascii" standalone="no"?><svg xmlns="http://www.w3.org/2000/svg" xmlns:xlink="http://www.w3.org/1999/xlink" contentStyleType="text/css" height="1138px" preserveAspectRatio="none" style="width:1025px;height:1138px;background:#FFFFFF;" version="1.1" viewBox="0 0 1025 1138" width="1025px" zoomAndPan="magnify"><defs/><g><!--class Utilisateur--><g id="elem_Utilisateur"><rect codeLine="9" fill="#FFFFFF" height="224.0938" id="Utilisateur" rx="2.5" ry="2.5" style="stroke:#000000;stroke-width:0.5;" width="380" x="215.49" y="7"/><ellipse cx="369.74" cy="23" fill="#A9DCDF" rx="11" ry="11" style="stroke:#181818;stroke-width:1.0;"/><path d="M371.9275,24.7656 L367.7869,24.7656 L367.365,25.7969 L367.7869,25.7969 Q368.3963,25.7969 368.6619,26.0313 Q368.9275,26.2656 368.9275,26.6563 Q368.9275,27.0313 368.6619,27.2656 Q368.3963,27.5 367.7869,27.5 L365.49,27.5 Q364.8806,27.5 364.6306,27.2656 Q364.365,27.0313 364.365,26.6406 Q364.365,26.2656 364.6463,26.0313 Q364.9119,25.7813 365.5369,25.7969 L368.2088,19.1406 L367.0994,19.1406 Q366.49,19.1406 366.2244,18.9063 Q365.9588,18.6719 365.9588,18.2813 Q365.9588,17.9063 366.2244,17.6719 Q366.49,17.4375 367.0994,17.4375 L370.7713,17.4375 L374.1619,25.7969 Q374.7556,25.7969 374.9431,25.9375 Q375.3338,26.2031 375.3338,26.6563 Q375.3338,27.0313 375.0681,27.2656 Q374.8181,27.5 374.2088,27.5 L371.9119,27.5 Q371.3025,27.5 371.0369,27.2656 Q370.7713,27.0313 370.7713,26.6406 Q370.7713,26.2656 371.0369,26.0313 Q371.3025,25.7969 371.9119,25.7969 L372.3338,25.7969 L371.9275,24.7656 Z M371.2088,23.0625 L369.8494,19.6875 L368.4744,23.0625 L371.2088,23.0625 Z " fill="#000000"/><text fill="#000000" font-family="sans-serif" font-size="14" font-style="italic" lengthAdjust="spacing" textLength="63" x="390.24" y="28.7285">Utilisateur</text><line style="stroke:#000000;stroke-width:0.5;" x1="216.49" x2="594.49" y1="39" y2="39"/><text fill="#000000" font-family="sans-serif" font-size="14" lengthAdjust="spacing" textLength="43" x="221.49" y="57.5332">-id : int</text><text fill="#000000" font-family="sans-serif" font-size="14" lengthAdjust="spacing" textLength="81" x="221.49" y="75.1426">-nom : String</text><text fill="#000000" font-family="sans-serif" font-size="14" lengthAdjust="spacing" textLength="102" x="221.49" y="92.752">-prenom : String</text><text fill="#000000" font-family="sans-serif" font-size="14" lengthAdjust="spacing" textLength="87" x="221.49" y="110.3613">-email : String</text><text fill="#000000" font-family="sans-serif" font-size="14" lengthAdjust="spacing" textLength="94" x="221.49" y="127.9707">-actif : boolean</text><text fill="#000000" font-family="sans-serif" font-size="14" lengthAdjust="spacing" textLength="237" x="221.49" y="145.5801">-confidentialite : NiveauConfidentialite</text><line style="stroke:#000000;stroke-width:0.5;" x1="216.49" x2="594.49" y1="152.6563" y2="152.6563"/><text fill="#000000" font-family="sans-serif" font-size="14" lengthAdjust="spacing" textLength="168" x="221.49" y="171.1895">+seAuthentifier() : boolean</text><text fill="#000000" font-family="sans-serif" font-size="14" lengthAdjust="spacing" textLength="230" x="221.49" y="188.7988">+consulterCourrier() : List&lt;Courrier&gt;</text><text fill="#000000" font-family="sans-serif" font-size="14" lengthAdjust="spacing" textLength="330" x="221.49" y="206.4082">+rechercherCourrier(critere : String) : List&lt;Courrier&gt;</text><text fill="#000000" font-family="sans-serif" font-size="14" lengthAdjust="spacing" textLength="368" x="221.49" y="224.0176">+envoyerMessage(msg : Message, dest : Utilisateur) : void</text></g><!--class Secretaire--><g id="elem_Secretaire"><rect codeLine="23" fill="#FFFFFF" height="83.2188" id="Secretaire" rx="2.5" ry="2.5" style="stroke:#000000;stroke-width:0.5;" width="242" x="284.49" y="370.5"/><ellipse cx="368.74" cy="386.5" fill="#ADD1B2" rx="11" ry="11" style="stroke:#181818;stroke-width:1.0;"/><path d="M371.5056,382.375 Q371.6619,382.1563 371.8494,382.0469 Q372.0369,381.9375 372.2556,381.9375 Q372.6306,381.9375 372.865,382.2031 Q373.0994,382.4531 373.0994,383.0625 L373.0994,384.5156 Q373.0994,385.125 372.865,385.3906 Q372.6306,385.6563 372.2556,385.6563 Q371.9119,385.6563 371.7088,385.4531 Q371.5056,385.2656 371.3963,384.75 Q371.3494,384.3906 371.1619,384.2031 Q370.8338,383.8281 370.2244,383.6094 Q369.615,383.3906 368.99,383.3906 Q368.2244,383.3906 367.5838,383.7188 Q366.9588,384.0469 366.4588,384.7969 Q365.9744,385.5469 365.9744,386.5781 L365.9744,387.6719 Q365.9744,388.9063 366.865,389.7344 Q367.7556,390.5469 369.3494,390.5469 Q370.2869,390.5469 370.9431,390.2969 Q371.3338,390.1406 371.7556,389.7031 Q372.0213,389.4375 372.1619,389.3594 Q372.3181,389.2813 372.5213,389.2813 Q372.8494,389.2813 373.0994,389.5469 Q373.365,389.7969 373.365,390.1406 Q373.365,390.4844 373.0213,390.8906 Q372.5213,391.4688 371.7244,391.7969 Q370.6463,392.25 369.3494,392.25 Q367.8338,392.25 366.6306,391.625 Q365.6463,391.125 364.9588,390.0625 Q364.2713,388.9844 364.2713,387.7031 L364.2713,386.5469 Q364.2713,385.2188 364.8806,384.0781 Q365.5056,382.9219 366.5994,382.3125 Q367.6931,381.6875 368.9275,381.6875 Q369.6619,381.6875 370.3025,381.8594 Q370.9588,382.0156 371.5056,382.375 Z " fill="#000000"/><text fill="#000000" font-family="sans-serif" font-size="14" lengthAdjust="spacing" textLength="65" x="389.24" y="392.2285">Secretaire</text><line style="stroke:#000000;stroke-width:0.5;" x1="285.49" x2="525.49" y1="402.5" y2="402.5"/><line style="stroke:#000000;stroke-width:0.5;" x1="285.49" x2="525.49" y1="410.5" y2="410.5"/><text fill="#000000" font-family="sans-serif" font-size="14" lengthAdjust="spacing" textLength="212" x="290.49" y="429.0332">+creerCourrier(c : Courrier) : void</text><text fill="#000000" font-family="sans-serif" font-size="14" lengthAdjust="spacing" textLength="230" x="290.49" y="446.6426">+recevoirCourrier(c : Courrier) : void</text></g><!--class ChefDePoste--><g id="elem_ChefDePoste"><rect codeLine="28" fill="#FFFFFF" height="65.6094" id="ChefDePoste" rx="2.5" ry="2.5" style="stroke:#000000;stroke-width:0.5;" width="233" x="42.99" y="1030"/><ellipse cx="113.24" cy="1046" fill="#ADD1B2" rx="11" ry="11" style="stroke:#181818;stroke-width:1.0;"/><path d="M116.0056,1041.875 Q116.1619,1041.6563 116.3494,1041.5469 Q116.5369,1041.4375 116.7556,1041.4375 Q117.1306,1041.4375 117.365,1041.7031 Q117.5994,1041.9531 117.5994,1042.5625 L117.5994,1044.0156 Q117.5994,1044.625 117.365,1044.8906 Q117.1306,1045.1563 116.7556,1045.1563 Q116.4119,1045.1563 116.2088,1044.9531 Q116.0056,1044.7656 115.8963,1044.25 Q115.8494,1043.8906 115.6619,1043.7031 Q115.3338,1043.3281 114.7244,1043.1094 Q114.115,1042.8906 113.49,1042.8906 Q112.7244,1042.8906 112.0838,1043.2188 Q111.4588,1043.5469 110.9588,1044.2969 Q110.4744,1045.0469 110.4744,1046.0781 L110.4744,1047.1719 Q110.4744,1048.4063 111.365,1049.2344 Q112.2556,1050.0469 113.8494,1050.0469 Q114.7869,1050.0469 115.4431,1049.7969 Q115.8338,1049.6406 116.2556,1049.2031 Q116.5213,1048.9375 116.6619,1048.8594 Q116.8181,1048.7813 117.0213,1048.7813 Q117.3494,1048.7813 117.5994,1049.0469 Q117.865,1049.2969 117.865,1049.6406 Q117.865,1049.9844 117.5213,1050.3906 Q117.0213,1050.9688 116.2244,1051.2969 Q115.1463,1051.75 113.8494,1051.75 Q112.3338,1051.75 111.1306,1051.125 Q110.1463,1050.625 109.4588,1049.5625 Q108.7713,1048.4844 108.7713,1047.2031 L108.7713,1046.0469 Q108.7713,1044.7188 109.3806,1043.5781 Q110.0056,1042.4219 111.0994,1041.8125 Q112.1931,1041.1875 113.4275,1041.1875 Q114.1619,1041.1875 114.8025,1041.3594 Q115.4588,1041.5156 116.0056,1041.875 Z " fill="#000000"/><text fill="#000000" font-family="sans-serif" font-size="14" lengthAdjust="spacing" textLength="84" x="133.74" y="1051.7285">ChefDePoste</text><line style="stroke:#000000;stroke-width:0.5;" x1="43.99" x2="274.99" y1="1062" y2="1062"/><line style="stroke:#000000;stroke-width:0.5;" x1="43.99" x2="274.99" y1="1070" y2="1070"/><text fill="#000000" font-family="sans-serif" font-size="14" lengthAdjust="spacing" textLength="221" x="48.99" y="1088.5332">+validerCourrier(c : Courrier) : void</text></g><!--class Administrateur--><g id="elem_Administrateur"><rect codeLine="32" fill="#FFFFFF" height="65.6094" id="Administrateur" rx="2.5" ry="2.5" style="stroke:#000000;stroke-width:0.5;" width="241" x="183.99" y="553.5"/><ellipse cx="254.74" cy="569.5" fill="#ADD1B2" rx="11" ry="11" style="stroke:#181818;stroke-width:1.0;"/><path d="M257.5056,565.375 Q257.6619,565.1563 257.8494,565.0469 Q258.0369,564.9375 258.2556,564.9375 Q258.6306,564.9375 258.865,565.2031 Q259.0994,565.4531 259.0994,566.0625 L259.0994,567.5156 Q259.0994,568.125 258.865,568.3906 Q258.6306,568.6563 258.2556,568.6563 Q257.9119,568.6563 257.7088,568.4531 Q257.5056,568.2656 257.3963,567.75 Q257.3494,567.3906 257.1619,567.2031 Q256.8338,566.8281 256.2244,566.6094 Q255.615,566.3906 254.99,566.3906 Q254.2244,566.3906 253.5838,566.7188 Q252.9588,567.0469 252.4588,567.7969 Q251.9744,568.5469 251.9744,569.5781 L251.9744,570.6719 Q251.9744,571.9063 252.865,572.7344 Q253.7556,573.5469 255.3494,573.5469 Q256.2869,573.5469 256.9431,573.2969 Q257.3338,573.1406 257.7556,572.7031 Q258.0213,572.4375 258.1619,572.3594 Q258.3181,572.2813 258.5213,572.2813 Q258.8494,572.2813 259.0994,572.5469 Q259.365,572.7969 259.365,573.1406 Q259.365,573.4844 259.0213,573.8906 Q258.5213,574.4688 257.7244,574.7969 Q256.6463,575.25 255.3494,575.25 Q253.8338,575.25 252.6306,574.625 Q251.6463,574.125 250.9588,573.0625 Q250.2713,571.9844 250.2713,570.7031 L250.2713,569.5469 Q250.2713,568.2188 250.8806,567.0781 Q251.5056,565.9219 252.5994,565.3125 Q253.6931,564.6875 254.9275,564.6875 Q255.6619,564.6875 256.3025,564.8594 Q256.9588,565.0156 257.5056,565.375 Z " fill="#000000"/><text fill="#000000" font-family="sans-serif" font-size="14" lengthAdjust="spacing" textLength="91" x="275.24" y="575.2285">Administrateur</text><line style="stroke:#000000;stroke-width:0.5;" x1="184.99" x2="423.99" y1="585.5" y2="585.5"/><line style="stroke:#000000;stroke-width:0.5;" x1="184.99" x2="423.99" y1="593.5" y2="593.5"/><text fill="#000000" font-family="sans-serif" font-size="14" lengthAdjust="spacing" textLength="229" x="189.99" y="612.0332">+gererNiveauxConfidentialite() : void</text></g><!--class Courrier--><g id="elem_Courrier"><rect codeLine="40" fill="#FFFFFF" height="259.3125" id="Courrier" rx="2.5" ry="2.5" style="stroke:#000000;stroke-width:0.5;" width="310" x="366.49" y="658"/><ellipse cx="491.24" cy="674" fill="#ADD1B2" rx="11" ry="11" style="stroke:#181818;stroke-width:1.0;"/><path d="M494.0056,669.875 Q494.1619,669.6563 494.3494,669.5469 Q494.5369,669.4375 494.7556,669.4375 Q495.1306,669.4375 495.365,669.7031 Q495.5994,669.9531 495.5994,670.5625 L495.5994,672.0156 Q495.5994,672.625 495.365,672.8906 Q495.1306,673.1563 494.7556,673.1563 Q494.4119,673.1563 494.2088,672.9531 Q494.0056,672.7656 493.8963,672.25 Q493.8494,671.8906 493.6619,671.7031 Q493.3338,671.3281 492.7244,671.1094 Q492.115,670.8906 491.49,670.8906 Q490.7244,670.8906 490.0838,671.2188 Q489.4588,671.5469 488.9588,672.2969 Q488.4744,673.0469 488.4744,674.0781 L488.4744,675.1719 Q488.4744,676.4063 489.365,677.2344 Q490.2556,678.0469 491.8494,678.0469 Q492.7869,678.0469 493.4431,677.7969 Q493.8338,677.6406 494.2556,677.2031 Q494.5213,676.9375 494.6619,676.8594 Q494.8181,676.7813 495.0213,676.7813 Q495.3494,676.7813 495.5994,677.0469 Q495.865,677.2969 495.865,677.6406 Q495.865,677.9844 495.5213,678.3906 Q495.0213,678.9688 494.2244,679.2969 Q493.1463,679.75 491.8494,679.75 Q490.3338,679.75 489.1306,679.125 Q488.1463,678.625 487.4588,677.5625 Q486.7713,676.4844 486.7713,675.2031 L486.7713,674.0469 Q486.7713,672.7188 487.3806,671.5781 Q488.0056,670.4219 489.0994,669.8125 Q490.1931,669.1875 491.4275,669.1875 Q492.1619,669.1875 492.8025,669.3594 Q493.4588,669.5156 494.0056,669.875 Z " fill="#000000"/><text fill="#000000" font-family="sans-serif" font-size="14" lengthAdjust="spacing" textLength="52" x="511.74" y="679.7285">Courrier</text><line style="stroke:#000000;stroke-width:0.5;" x1="367.49" x2="675.49" y1="690" y2="690"/><text fill="#000000" font-family="sans-serif" font-size="14" lengthAdjust="spacing" textLength="43" x="372.49" y="708.5332">-id : int</text><text fill="#000000" font-family="sans-serif" font-size="14" lengthAdjust="spacing" textLength="102" x="372.49" y="726.1426">-numero : String</text><text fill="#000000" font-family="sans-serif" font-size="14" lengthAdjust="spacing" textLength="85" x="372.49" y="743.752">-objet : String</text><text fill="#000000" font-family="sans-serif" font-size="14" lengthAdjust="spacing" textLength="81" x="372.49" y="761.3613">-type : String</text><text fill="#000000" font-family="sans-serif" font-size="14" lengthAdjust="spacing" textLength="142" x="372.49" y="778.9707">-cheminFichier : String</text><text fill="#000000" font-family="sans-serif" font-size="14" lengthAdjust="spacing" textLength="129" x="372.49" y="796.5801">-dateCreation : Date</text><text fill="#000000" font-family="sans-serif" font-size="14" lengthAdjust="spacing" textLength="139" x="372.49" y="814.1895">-dateReception : Date</text><text fill="#000000" font-family="sans-serif" font-size="14" lengthAdjust="spacing" textLength="120" x="372.49" y="831.7988">-expediteur : String</text><text fill="#000000" font-family="sans-serif" font-size="14" lengthAdjust="spacing" textLength="141" x="372.49" y="849.4082">-statut : StatutCourrier</text><line style="stroke:#000000;stroke-width:0.5;" x1="367.49" x2="675.49" y1="856.4844" y2="856.4844"/><text fill="#000000" font-family="sans-serif" font-size="14" lengthAdjust="spacing" textLength="298" x="372.49" y="875.0176">+classifier(niveau : NiveauConfidentialite) : void</text><text fill="#000000" font-family="sans-serif" font-size="14" lengthAdjust="spacing" textLength="107" x="372.49" y="892.627">+archiver() : void</text><text fill="#000000" font-family="sans-serif" font-size="14" lengthAdjust="spacing" textLength="223" x="372.49" y="910.2363">+estVisible(u : Utilisateur) : boolean</text></g><!--class StatutCourrier--><g id="elem_StatutCourrier"><rect codeLine="55" fill="#FFFFFF" height="136.0469" id="StatutCourrier" rx="2.5" ry="2.5" style="stroke:#000000;stroke-width:0.5;" width="121" x="510.99" y="995"/><ellipse cx="525.99" cy="1011" fill="#EB937F" rx="11" ry="11" style="stroke:#181818;stroke-width:1.0;"/><path d="M524.8494,1011.7969 L524.8494,1014.2969 L529.1775,1014.2969 L529.1775,1013.375 Q529.1775,1012.7656 529.4119,1012.5 Q529.6619,1012.2344 530.0369,1012.2344 Q530.4119,1012.2344 530.6463,1012.5 Q530.8806,1012.7656 530.8806,1013.375 L530.8806,1016 L522.8806,1016 Q522.2556,1016 521.99,1015.7656 Q521.74,1015.5313 521.74,1015.1406 Q521.74,1014.7656 522.0056,1014.5313 Q522.2713,1014.2969 522.8806,1014.2969 L523.1463,1014.2969 L523.1463,1007.6406 L522.8806,1007.6406 Q522.2556,1007.6406 521.99,1007.4063 Q521.74,1007.1719 521.74,1006.7813 Q521.74,1006.4063 521.99,1006.1719 Q522.2556,1005.9375 522.8806,1005.9375 L530.5056,1005.9375 L530.5056,1008.5313 Q530.5056,1009.1406 530.2713,1009.4063 Q530.0525,1009.6563 529.6619,1009.6563 Q529.2869,1009.6563 529.0525,1009.4063 Q528.8181,1009.1406 528.8181,1008.5313 L528.8181,1007.6406 L524.8494,1007.6406 L524.8494,1010.0938 L526.3338,1010.0938 Q526.3338,1009.4375 526.4588,1009.25 Q526.7244,1008.8438 527.1931,1008.8438 Q527.5681,1008.8438 527.8025,1009.1094 Q528.0369,1009.3594 528.0369,1009.9688 L528.0369,1011.9375 Q528.0369,1012.4844 527.9119,1012.6719 Q527.6463,1013.0625 527.1931,1013.0625 Q526.7244,1013.0625 526.4588,1012.6563 Q526.3338,1012.4688 526.3338,1011.7969 L524.8494,1011.7969 Z " fill="#000000"/><text fill="#000000" font-family="sans-serif" font-size="14" lengthAdjust="spacing" textLength="89" x="539.99" y="1016.7285">StatutCourrier</text><line style="stroke:#000000;stroke-width:0.5;" x1="511.99" x2="630.99" y1="1027" y2="1027"/><text fill="#000000" font-family="sans-serif" font-size="14" lengthAdjust="spacing" textLength="38" x="516.99" y="1045.5332">CREE</text><text fill="#000000" font-family="sans-serif" font-size="14" lengthAdjust="spacing" textLength="38" x="516.99" y="1063.1426">RECU</text><text fill="#000000" font-family="sans-serif" font-size="14" lengthAdjust="spacing" textLength="69" x="516.99" y="1080.752">TRANSMIS</text><text fill="#000000" font-family="sans-serif" font-size="14" lengthAdjust="spacing" textLength="48" x="516.99" y="1098.3613">VALIDE</text><text fill="#000000" font-family="sans-serif" font-size="14" lengthAdjust="spacing" textLength="59" x="516.99" y="1115.9707">ARCHIVE</text><line style="stroke:#000000;stroke-width:0.5;" x1="511.99" x2="630.99" y1="1123.0469" y2="1123.0469"/></g><!--class NiveauConfidentialite--><g id="elem_NiveauConfidentialite"><rect codeLine="63" fill="#FFFFFF" height="100.8281" id="NiveauConfidentialite" rx="2.5" ry="2.5" style="stroke:#000000;stroke-width:0.5;" width="165" x="310.99" y="1012.5"/><ellipse cx="325.99" cy="1028.5" fill="#ADD1B2" rx="11" ry="11" style="stroke:#181818;stroke-width:1.0;"/><path d="M328.7556,1024.375 Q328.9119,1024.1563 329.0994,1024.0469 Q329.2869,1023.9375 329.5056,1023.9375 Q329.8806,1023.9375 330.115,1024.2031 Q330.3494,1024.4531 330.3494,1025.0625 L330.3494,1026.5156 Q330.3494,1027.125 330.115,1027.3906 Q329.8806,1027.6563 329.5056,1027.6563 Q329.1619,1027.6563 328.9588,1027.4531 Q328.7556,1027.2656 328.6463,1026.75 Q328.5994,1026.3906 328.4119,1026.2031 Q328.0838,1025.8281 327.4744,1025.6094 Q326.865,1025.3906 326.24,1025.3906 Q325.4744,1025.3906 324.8338,1025.7188 Q324.2088,1026.0469 323.7088,1026.7969 Q323.2244,1027.5469 323.2244,1028.5781 L323.2244,1029.6719 Q323.2244,1030.9063 324.115,1031.7344 Q325.0056,1032.5469 326.5994,1032.5469 Q327.5369,1032.5469 328.1931,1032.2969 Q328.5838,1032.1406 329.0056,1031.7031 Q329.2713,1031.4375 329.4119,1031.3594 Q329.5681,1031.2813 329.7713,1031.2813 Q330.0994,1031.2813 330.3494,1031.5469 Q330.615,1031.7969 330.615,1032.1406 Q330.615,1032.4844 330.2713,1032.8906 Q329.7713,1033.4688 328.9744,1033.7969 Q327.8963,1034.25 326.5994,1034.25 Q325.0838,1034.25 323.8806,1033.625 Q322.8963,1033.125 322.2088,1032.0625 Q321.5213,1030.9844 321.5213,1029.7031 L321.5213,1028.5469 Q321.5213,1027.2188 322.1306,1026.0781 Q322.7556,1024.9219 323.8494,1024.3125 Q324.9431,1023.6875 326.1775,1023.6875 Q326.9119,1023.6875 327.5525,1023.8594 Q328.2088,1024.0156 328.7556,1024.375 Z " fill="#000000"/><text fill="#000000" font-family="sans-serif" font-size="14" lengthAdjust="spacing" textLength="133" x="339.99" y="1034.2285">NiveauConfidentialite</text><line style="stroke:#000000;stroke-width:0.5;" x1="311.99" x2="474.99" y1="1044.5" y2="1044.5"/><text fill="#000000" font-family="sans-serif" font-size="14" lengthAdjust="spacing" textLength="43" x="316.99" y="1063.0332">-id : int</text><text fill="#000000" font-family="sans-serif" font-size="14" lengthAdjust="spacing" textLength="90" x="316.99" y="1080.6426">-libelle : String</text><text fill="#000000" font-family="sans-serif" font-size="14" lengthAdjust="spacing" textLength="61" x="316.99" y="1098.252">-rang : int</text><line style="stroke:#000000;stroke-width:0.5;" x1="311.99" x2="474.99" y1="1105.3281" y2="1105.3281"/></g><!--class Message--><g id="elem_Message"><rect codeLine="69" fill="#FFFFFF" height="206.4844" id="Message" rx="2.5" ry="2.5" style="stroke:#000000;stroke-width:0.5;" width="165" x="798.99" y="309"/><ellipse cx="848.74" cy="325" fill="#ADD1B2" rx="11" ry="11" style="stroke:#181818;stroke-width:1.0;"/><path d="M851.5056,320.875 Q851.6619,320.6563 851.8494,320.5469 Q852.0369,320.4375 852.2556,320.4375 Q852.6306,320.4375 852.865,320.7031 Q853.0994,320.9531 853.0994,321.5625 L853.0994,323.0156 Q853.0994,323.625 852.865,323.8906 Q852.6306,324.1563 852.2556,324.1563 Q851.9119,324.1563 851.7088,323.9531 Q851.5056,323.7656 851.3963,323.25 Q851.3494,322.8906 851.1619,322.7031 Q850.8338,322.3281 850.2244,322.1094 Q849.615,321.8906 848.99,321.8906 Q848.2244,321.8906 847.5838,322.2188 Q846.9588,322.5469 846.4588,323.2969 Q845.9744,324.0469 845.9744,325.0781 L845.9744,326.1719 Q845.9744,327.4063 846.865,328.2344 Q847.7556,329.0469 849.3494,329.0469 Q850.2869,329.0469 850.9431,328.7969 Q851.3338,328.6406 851.7556,328.2031 Q852.0213,327.9375 852.1619,327.8594 Q852.3181,327.7813 852.5213,327.7813 Q852.8494,327.7813 853.0994,328.0469 Q853.365,328.2969 853.365,328.6406 Q853.365,328.9844 853.0213,329.3906 Q852.5213,329.9688 851.7244,330.2969 Q850.6463,330.75 849.3494,330.75 Q847.8338,330.75 846.6306,330.125 Q845.6463,329.625 844.9588,328.5625 Q844.2713,327.4844 844.2713,326.2031 L844.2713,325.0469 Q844.2713,323.7188 844.8806,322.5781 Q845.5056,321.4219 846.5994,320.8125 Q847.6931,320.1875 848.9275,320.1875 Q849.6619,320.1875 850.3025,320.3594 Q850.9588,320.5156 851.5056,320.875 Z " fill="#000000"/><text fill="#000000" font-family="sans-serif" font-size="14" lengthAdjust="spacing" textLength="57" x="869.24" y="330.7285">Message</text><line style="stroke:#000000;stroke-width:0.5;" x1="799.99" x2="962.99" y1="341" y2="341"/><text fill="#000000" font-family="sans-serif" font-size="14" lengthAdjust="spacing" textLength="43" x="804.99" y="359.5332">-id : int</text><text fill="#000000" font-family="sans-serif" font-size="14" lengthAdjust="spacing" textLength="105" x="804.99" y="377.1426">-contenu : String</text><text fill="#000000" font-family="sans-serif" font-size="14" lengthAdjust="spacing" textLength="110" x="804.99" y="394.752">-dateEnvoi : Date</text><text fill="#000000" font-family="sans-serif" font-size="14" lengthAdjust="spacing" textLength="79" x="804.99" y="412.3613">-lu : boolean</text><text fill="#000000" font-family="sans-serif" font-size="14" lengthAdjust="spacing" textLength="135" x="804.99" y="429.9707">-emetteur : Utilisateur</text><text fill="#000000" font-family="sans-serif" font-size="14" lengthAdjust="spacing" textLength="153" x="804.99" y="447.5801">-destinataire : Utilisateur</text><text fill="#000000" font-family="sans-serif" font-size="14" lengthAdjust="spacing" textLength="118" x="804.99" y="465.1895">-courrier : Courrier</text><line style="stroke:#000000;stroke-width:0.5;" x1="799.99" x2="962.99" y1="472.2656" y2="472.2656"/><text fill="#000000" font-family="sans-serif" font-size="14" lengthAdjust="spacing" textLength="107" x="804.99" y="490.7988">+envoyer() : void</text><text fill="#000000" font-family="sans-serif" font-size="14" lengthAdjust="spacing" textLength="125" x="804.99" y="508.4082">+marquerLu() : void</text></g><!--class Service--><g id="elem_Service"><rect codeLine="81" fill="#FFFFFF" height="83.2188" id="Service" rx="2.5" ry="2.5" style="stroke:#000000;stroke-width:0.5;" width="102" x="10.49" y="545"/><ellipse cx="35.84" cy="561" fill="#ADD1B2" rx="11" ry="11" style="stroke:#181818;stroke-width:1.0;"/><path d="M38.6056,556.875 Q38.7619,556.6563 38.9494,556.5469 Q39.1369,556.4375 39.3556,556.4375 Q39.7306,556.4375 39.965,556.7031 Q40.1994,556.9531 40.1994,557.5625 L40.1994,559.0156 Q40.1994,559.625 39.965,559.8906 Q39.7306,560.1563 39.3556,560.1563 Q39.0119,560.1563 38.8088,559.9531 Q38.6056,559.7656 38.4963,559.25 Q38.4494,558.8906 38.2619,558.7031 Q37.9338,558.3281 37.3244,558.1094 Q36.715,557.8906 36.09,557.8906 Q35.3244,557.8906 34.6838,558.2188 Q34.0588,558.5469 33.5588,559.2969 Q33.0744,560.0469 33.0744,561.0781 L33.0744,562.1719 Q33.0744,563.4063 33.965,564.2344 Q34.8556,565.0469 36.4494,565.0469 Q37.3869,565.0469 38.0431,564.7969 Q38.4338,564.6406 38.8556,564.2031 Q39.1213,563.9375 39.2619,563.8594 Q39.4181,563.7813 39.6213,563.7813 Q39.9494,563.7813 40.1994,564.0469 Q40.465,564.2969 40.465,564.6406 Q40.465,564.9844 40.1213,565.3906 Q39.6213,565.9688 38.8244,566.2969 Q37.7463,566.75 36.4494,566.75 Q34.9338,566.75 33.7306,566.125 Q32.7463,565.625 32.0588,564.5625 Q31.3713,563.4844 31.3713,562.2031 L31.3713,561.0469 Q31.3713,559.7188 31.9806,558.5781 Q32.6056,557.4219 33.6994,556.8125 Q34.7931,556.1875 36.0275,556.1875 Q36.7619,556.1875 37.4025,556.3594 Q38.0588,556.5156 38.6056,556.875 Z " fill="#000000"/><text fill="#000000" font-family="sans-serif" font-size="14" lengthAdjust="spacing" textLength="47" x="52.14" y="566.7285">Service</text><line style="stroke:#000000;stroke-width:0.5;" x1="11.49" x2="111.49" y1="577" y2="577"/><text fill="#000000" font-family="sans-serif" font-size="14" lengthAdjust="spacing" textLength="43" x="16.49" y="595.5332">-id : int</text><text fill="#000000" font-family="sans-serif" font-size="14" lengthAdjust="spacing" textLength="90" x="16.49" y="613.1426">-libelle : String</text><line style="stroke:#000000;stroke-width:0.5;" x1="11.49" x2="111.49" y1="620.2188" y2="620.2188"/></g><!--reverse link Utilisateur to Secretaire--><g id="link_Utilisateur_Secretaire"><path codeLine="36" d="M405.49,249.26 C405.49,298.04 405.49,334.26 405.49,370.26 " fill="none" id="Utilisateur-backto-Secretaire" style="stroke:#000000;stroke-width:1.0;"/><polygon fill="none" points="405.49,231.26,399.49,249.26,411.49,249.26,405.49,231.26" style="stroke:#000000;stroke-width:1.0;"/></g><!--reverse link Utilisateur to ChefDePoste--><g id="link_Utilisateur_ChefDePoste"><path codeLine="37" d="M277.5035,245.1578 C258.1735,269.0678 251.77,281.48 239.49,309 C124.46,566.83 146.13,921.97 156.09,1029.73 " fill="none" id="Utilisateur-backto-ChefDePoste" style="stroke:#000000;stroke-width:1.0;"/><polygon fill="none" points="288.82,231.16,272.8376,241.3856,282.1695,248.9299,288.82,231.16" style="stroke:#000000;stroke-width:1.0;"/></g><!--reverse link Utilisateur to Administrateur--><g id="link_Utilisateur_Administrateur"><path codeLine="38" d="M296.1502,246.0762 C279.8102,270.2162 275.41,281.81 266.49,309 C237.95,395.99 244.09,426.23 266.49,515 C269.82,528.21 276.17,541.64 282.74,553.18 " fill="none" id="Utilisateur-backto-Administrateur" style="stroke:#000000;stroke-width:1.0;"/><polygon fill="none" points="306.24,231.17,291.1815,242.713,301.1189,249.4395,306.24,231.17" style="stroke:#000000;stroke-width:1.0;"/></g><!--link Courrier to StatutCourrier--><g id="link_Courrier_StatutCourrier"><path codeLine="87" d="M545.03,917.24 C549.94,944.12 553.8518,965.5077 558.1518,989.0477 " fill="none" id="Courrier-to-StatutCourrier" style="stroke:#000000;stroke-width:1.0;"/><polygon fill="#000000" points="559.23,994.95,561.5476,985.3777,558.3315,990.0314,553.6779,986.8153,559.23,994.95" style="stroke:#000000;stroke-width:1.0;"/><text fill="#000000" font-family="sans-serif" font-size="13" lengthAdjust="spacing" textLength="44" x="553.49" y="961.4951">a statut</text></g><!--link Courrier to NiveauConfidentialite--><g id="link_Courrier_NiveauConfidentialite"><path codeLine="88" d="M461.24,917.24 C445.42,951.05 431.8337,980.0759 419.2837,1006.8859 " fill="none" id="Courrier-to-NiveauConfidentialite" style="stroke:#000000;stroke-width:1.0;"/><polygon fill="#000000" points="416.74,1012.32,424.1783,1005.8647,418.8598,1007.7916,416.9329,1002.473,416.74,1012.32" style="stroke:#000000;stroke-width:1.0;"/><text fill="#000000" font-family="sans-serif" font-size="13" lengthAdjust="spacing" textLength="69" x="447.49" y="961.4951">classifi&#233; par</text><text fill="#000000" font-family="sans-serif" font-size="13" lengthAdjust="spacing" textLength="7" x="450.5545" y="938.6993">1</text><text fill="#000000" font-family="sans-serif" font-size="13" lengthAdjust="spacing" textLength="20" x="398.6033" y="1001.6">0..*</text></g><!--link Administrateur to NiveauConfidentialite--><g id="link_Administrateur_NiveauConfidentialite"><path codeLine="89" d="M300.25,619.59 C292.73,686.34 281.76,844 326.49,965 C332.59,981.51 338.7449,992.9367 348.7549,1007.3967 " fill="none" id="Administrateur-to-NiveauConfidentialite" style="stroke:#000000;stroke-width:1.0;"/><polygon fill="#000000" points="352.17,1012.33,350.3362,1002.6534,349.3241,1008.2189,343.7585,1007.2068,352.17,1012.33" style="stroke:#000000;stroke-width:1.0;"/><text fill="#000000" font-family="sans-serif" font-size="13" lengthAdjust="spacing" textLength="25" x="313.49" y="792.9951">g&#232;re</text><text fill="#000000" font-family="sans-serif" font-size="13" lengthAdjust="spacing" textLength="7" x="291.8229" y="640.7295">1</text><text fill="#000000" font-family="sans-serif" font-size="13" lengthAdjust="spacing" textLength="20" x="324.9531" y="1001.6115">0..*</text></g><!--link Utilisateur to Message--><g id="link_Utilisateur_Message"><path codeLine="91" d="M595.51,143.58 C736.91,165.49 912.82,203.49 957.49,261 C969.58,276.56 971.9083,288.6582 965.9883,306.4082 " fill="none" id="Utilisateur-to-Message" style="stroke:#000000;stroke-width:1.0;"/><polygon fill="#000000" points="964.09,312.1,970.732,304.8279,965.6719,307.3569,963.143,302.2968,964.09,312.1" style="stroke:#000000;stroke-width:1.0;"/><text fill="#000000" font-family="sans-serif" font-size="13" lengthAdjust="spacing" textLength="51" x="966.49" y="275.4951">emetteur</text><text fill="#000000" font-family="sans-serif" font-size="13" lengthAdjust="spacing" textLength="7" x="603.6741" y="141.78">1</text><text fill="#000000" font-family="sans-serif" font-size="13" lengthAdjust="spacing" textLength="5" x="971.9352" y="299.642">*</text></g><!--link Message to Utilisateur--><g id="link_Message_Utilisateur"><path codeLine="92" d="M798.94,366.22 C753.77,341.27 697.07,309.23 647.49,279 C622.7,263.89 601.8218,250.7528 576.5418,234.4428 " fill="none" id="Message-to-Utilisateur" style="stroke:#000000;stroke-width:1.0;"/><polygon fill="#000000" points="571.5,231.19,576.8941,239.4304,575.7015,233.9007,581.2312,232.708,571.5,231.19" style="stroke:#000000;stroke-width:1.0;"/><text fill="#000000" font-family="sans-serif" font-size="13" lengthAdjust="spacing" textLength="300" x="648.49" y="275.4951">destinataire (fl&#232;che inverse : Message -&gt; Utilisateur)</text><text fill="#000000" font-family="sans-serif" font-size="13" lengthAdjust="spacing" textLength="7" x="784.0073" y="358.7512">1</text><text fill="#000000" font-family="sans-serif" font-size="13" lengthAdjust="spacing" textLength="7" x="575.4186" y="252.769">1</text></g><!--link Secretaire to Courrier--><g id="link_Secretaire_Courrier"><path codeLine="95" d="M418.12,453.68 C433.25,502.37 457.5203,580.53 479.6903,651.91 " fill="none" id="Secretaire-to-Courrier" style="stroke:#000000;stroke-width:1.0;"/><polygon fill="#000000" points="481.47,657.64,482.6205,647.8586,479.9869,652.865,474.9805,650.2315,481.47,657.64" style="stroke:#000000;stroke-width:1.0;"/><text fill="#000000" font-family="sans-serif" font-size="13" lengthAdjust="spacing" textLength="69" x="471.49" y="591.9951">cr&#233;e / re&#231;oit</text><text fill="#000000" font-family="sans-serif" font-size="13" lengthAdjust="spacing" textLength="7" x="412.5751" y="475.1035">1</text><text fill="#000000" font-family="sans-serif" font-size="13" lengthAdjust="spacing" textLength="5" x="474.0118" y="647.1662">*</text></g><!--link Utilisateur to Courrier--><g id="link_Utilisateur_Courrier"><path codeLine="96" d="M503.32,231.18 C519.65,255.37 534.26,281.88 543.49,309 C582.06,422.33 571.2455,553.6454 553.5255,651.8454 " fill="none" id="Utilisateur-to-Courrier" style="stroke:#000000;stroke-width:1.0;"/><polygon fill="#000000" points="552.46,657.75,557.9946,649.6034,553.3479,652.8295,550.1218,648.1827,552.46,657.75" style="stroke:#000000;stroke-width:1.0;"/><text fill="#000000" font-family="sans-serif" font-size="13" lengthAdjust="spacing" textLength="49" x="570.49" y="417.4951">consulte</text><text fill="#000000" font-family="sans-serif" font-size="13" lengthAdjust="spacing" textLength="20" x="489.2211" y="252.7584">0..*</text><text fill="#000000" font-family="sans-serif" font-size="13" lengthAdjust="spacing" textLength="5" x="549.1059" y="647.2826">*</text></g><!--link Utilisateur to Service--><g id="link_Utilisateur_Service"><path codeLine="97" d="M215.4,155.69 C157.24,176.45 99.45,209.24 64.49,261 C6,347.61 29.1147,473.2932 47.1547,539.1432 " fill="none" id="Utilisateur-to-Service" style="stroke:#000000;stroke-width:1.0;"/><polygon fill="#000000" points="48.74,544.93,50.2199,535.193,47.4189,540.1077,42.5042,537.3067,48.74,544.93" style="stroke:#000000;stroke-width:1.0;"/><text fill="#000000" font-family="sans-serif" font-size="13" lengthAdjust="spacing" textLength="68" x="65.49" y="275.4951">appartient &#224;</text><text fill="#000000" font-family="sans-serif" font-size="13" lengthAdjust="spacing" textLength="20" x="187.584" y="154.3109">0..*</text><text fill="#000000" font-family="sans-serif" font-size="13" lengthAdjust="spacing" textLength="7" x="39.0486" y="534.2261">1</text></g><!--reverse link Service to ChefDePoste--><g id="link_Service_ChefDePoste"><path codeLine="99" d="M59.3823,634.1774 C57.5123,697.2774 58.42,815.99 86.49,917 C97.92,958.14 121.39,1001.37 138.64,1029.81 " fill="none" id="Service-backto-ChefDePoste" style="stroke:#000000;stroke-width:1.0;"/><polygon fill="#000000" points="59.56,628.18,55.2952,637.0576,59.4119,633.1778,63.2916,637.2945,59.56,628.18" style="stroke:#000000;stroke-width:1.0;"/><text fill="#000000" font-family="sans-serif" font-size="13" lengthAdjust="spacing" textLength="46" x="87.49" y="792.9951">est chef</text><text fill="#000000" font-family="sans-serif" font-size="13" lengthAdjust="spacing" textLength="7" x="51.6946" y="649.6035">1</text><text fill="#000000" font-family="sans-serif" font-size="13" lengthAdjust="spacing" textLength="7" x="126.8461" y="1019.2689">1</text></g><!--link Courrier to ChefDePoste--><g id="link_Courrier_ChefDePoste"><path codeLine="103" d="M366.39,905.68 C306.52,950.91 247.5778,995.4538 206.9178,1026.1638 " fill="none" id="Courrier-to-ChefDePoste" style="stroke:#000000;stroke-width:1.0;"/><polygon fill="#000000" points="202.13,1029.78,211.7225,1027.5476,206.1199,1026.7665,206.9009,1021.1638,202.13,1029.78" style="stroke:#000000;stroke-width:1.0;"/><text fill="#000000" font-family="sans-serif" font-size="13" lengthAdjust="spacing" textLength="54" x="309.49" y="961.4951">valid&#233; par</text><text fill="#000000" font-family="sans-serif" font-size="13" lengthAdjust="spacing" textLength="20" x="338.393" y="908.5129">0..*</text><text fill="#000000" font-family="sans-serif" font-size="13" lengthAdjust="spacing" textLength="22" x="186.3591" y="1019.233">0..1</text></g><!--SRC=[ZLRRKjim47ttLsZoWbi8fQyPXfaGqcbck7IIGfyLU-C8P2b8Se1U_eMtak_mZtNbMoGxcVB0E5hjzUpP5Vg1YHLLD2LwIMFvn4H25fHh27Hp4t6gzT0OnUQPWKaanOpz17BILY6_0aBEQVIGA9c9U2IvLEJ7aXcmSgbYKANidACIoePAoITNz2S8w5mRHIDJkRmrZ3DD3MIgSDydB2O3meGf3aAcU9fXQY8f12i57Hcab75VX07O0aLpAJbGOMLOreB580oZ75F6osks1fgDV3cg7X8DmymihMp1G8KVF4-715tfZ1jRRgPKhN79j3cj9MU5ee9e2Sh-DPgHmY0AcdJtM89OonTGLw0rJI1CTO9wrUc8nA0DdXtmh9krP75WCIwXdK6am526mNwLQIjm4q6B-j1OLqa37lwZsOGPBM5n0T-aDdMSDG8PmtljXt7A1BEaQ4XmI1A4I9NzUMurA7HTkFGv_TtlEqLtxvnCkvT-6arnLTexkPcbeAJFEpc_1-EBpCiAV0do0MDzOT7IUlQkOem-Ka0Dam9lBcX1o58-nRwisXVml8AO5MLuZhIX9YipiJ_gEaeUsD9APei2udspuD628ezHIOMU58bunpIRSmYpBYFheS5E0SBLIgO0TJGTZ_4p7OzkyVDzEhoUNKrc-FDkU3cvi5V3wUZhv6wyPSpEN7TrYBCvSDv2Nr6HL3gDnsgmTld0MJUOUxTDOvnGvhQ2P_x2mRq4fkgCWqlf075ZWfRJsRsEQeIsW-Dk1Ry5ALMF6QZBBEmErmpKcaNl0mUD3iWKU44-7JHTwlVFseqR45enRAlM-zmhL7idnySVUtkQD6Z8bsy8FYr1Q_hVwIJ9tt30lI5kBD6iRkUWQK5GYner_Bhc0xybuOBdRpYdY1PINiDs-H8qTbcEcDq8iW8SDffXPIJVu8flTxM8Tufhna_FZHa4pi9sgt5GZrI-0V89LtJ-LpBZ0r12jikgUgxsgcEmcYZOsHNsnJ24c-IlDgdoeYa0l-xA7zWLO5VQmjBdfbXG0knpd8b2N69JlGcsueRTceHnlhdFNqcQRynInj1-Ed3GXFV2MBYlADDaXHeanTd4Tu8yPWSsM6ra4oeSbHoh4paYicxKlSH_T10QXxqE7FYpKwJZxny0]--></g></svg>