<?xml version="1.0" encoding="us-ascii" standalone="no"?><svg xmlns="http://www.w3.org/2000/svg" xmlns:xlink="http://www.w3.org/1999/xlink" contentStyleType="text/css" height="1246px" preserveAspectRatio="none" style="width:905px;height:1246px;background:#FFFFFF;" version="1.1" viewBox="0 0 905 1246" width="905px" zoomAndPan="magnify"><defs/><g><!--class Utilisateur--><g id="elem_Utilisateur"><rect codeLine="12" fill="#FFFFFF" height="206.4844" id="Utilisateur" rx="2.5" ry="2.5" style="stroke:#000000;stroke-width:0.5;" width="380" x="391.5" y="7"/><ellipse cx="545.75" cy="23" fill="#A9DCDF" rx="11" ry="11" style="stroke:#181818;stroke-width:1.0;"/><path d="M547.9375,24.7656 L543.7969,24.7656 L543.375,25.7969 L543.7969,25.7969 Q544.4063,25.7969 544.6719,26.0313 Q544.9375,26.2656 544.9375,26.6563 Q544.9375,27.0313 544.6719,27.2656 Q544.4063,27.5 543.7969,27.5 L541.5,27.5 Q540.8906,27.5 540.6406,27.2656 Q540.375,27.0313 540.375,26.6406 Q540.375,26.2656 540.6563,26.0313 Q540.9219,25.7813 541.5469,25.7969 L544.2188,19.1406 L543.1094,19.1406 Q542.5,19.1406 542.2344,18.9063 Q541.9688,18.6719 541.9688,18.2813 Q541.9688,17.9063 542.2344,17.6719 Q542.5,17.4375 543.1094,17.4375 L546.7813,17.4375 L550.1719,25.7969 Q550.7656,25.7969 550.9531,25.9375 Q551.3438,26.2031 551.3438,26.6563 Q551.3438,27.0313 551.0781,27.2656 Q550.8281,27.5 550.2188,27.5 L547.9219,27.5 Q547.3125,27.5 547.0469,27.2656 Q546.7813,27.0313 546.7813,26.6406 Q546.7813,26.2656 547.0469,26.0313 Q547.3125,25.7969 547.9219,25.7969 L548.3438,25.7969 L547.9375,24.7656 Z M547.2188,23.0625 L545.8594,19.6875 L544.4844,23.0625 L547.2188,23.0625 Z " fill="#000000"/><text fill="#000000" font-family="sans-serif" font-size="14" font-style="italic" lengthAdjust="spacing" textLength="63" x="566.25" y="28.7285">Utilisateur</text><line style="stroke:#000000;stroke-width:0.5;" x1="392.5" x2="770.5" y1="39" y2="39"/><text fill="#000000" font-family="sans-serif" font-size="14" lengthAdjust="spacing" textLength="43" x="397.5" y="57.5332">-id : int</text><text fill="#000000" font-family="sans-serif" font-size="14" lengthAdjust="spacing" textLength="81" x="397.5" y="75.1426">-nom : String</text><text fill="#000000" font-family="sans-serif" font-size="14" lengthAdjust="spacing" textLength="102" x="397.5" y="92.752">-prenom : String</text><text fill="#000000" font-family="sans-serif" font-size="14" lengthAdjust="spacing" textLength="87" x="397.5" y="110.3613">-email : String</text><text fill="#000000" font-family="sans-serif" font-size="14" lengthAdjust="spacing" textLength="94" x="397.5" y="127.9707">-actif : boolean</text><line style="stroke:#000000;stroke-width:0.5;" x1="392.5" x2="770.5" y1="135.0469" y2="135.0469"/><text fill="#000000" font-family="sans-serif" font-size="14" lengthAdjust="spacing" textLength="168" x="397.5" y="153.5801">+seAuthentifier() : boolean</text><text fill="#000000" font-family="sans-serif" font-size="14" lengthAdjust="spacing" textLength="230" x="397.5" y="171.1895">+consulterCourrier() : List&lt;Courrier&gt;</text><text fill="#000000" font-family="sans-serif" font-size="14" lengthAdjust="spacing" textLength="330" x="397.5" y="188.7988">+rechercherCourrier(critere : String) : List&lt;Courrier&gt;</text><text fill="#000000" font-family="sans-serif" font-size="14" lengthAdjust="spacing" textLength="368" x="397.5" y="206.4082">+envoyerMessage(msg : Message, dest : Utilisateur) : void</text></g><!--class Secretaire--><g id="elem_Secretaire"><rect codeLine="24" fill="#FFFFFF" height="83.2188" id="Secretaire" rx="2.5" ry="2.5" style="stroke:#000000;stroke-width:0.5;" width="242" x="165.5" y="352.5"/><ellipse cx="249.75" cy="368.5" fill="#ADD1B2" rx="11" ry="11" style="stroke:#181818;stroke-width:1.0;"/><path d="M252.5156,364.375 Q252.6719,364.1563 252.8594,364.0469 Q253.0469,363.9375 253.2656,363.9375 Q253.6406,363.9375 253.875,364.2031 Q254.1094,364.4531 254.1094,365.0625 L254.1094,366.5156 Q254.1094,367.125 253.875,367.3906 Q253.6406,367.6563 253.2656,367.6563 Q252.9219,367.6563 252.7188,367.4531 Q252.5156,367.2656 252.4063,366.75 Q252.3594,366.3906 252.1719,366.2031 Q251.8438,365.8281 251.2344,365.6094 Q250.625,365.3906 250,365.3906 Q249.2344,365.3906 248.5938,365.7188 Q247.9688,366.0469 247.4688,366.7969 Q246.9844,367.5469 246.9844,368.5781 L246.9844,369.6719 Q246.9844,370.9063 247.875,371.7344 Q248.7656,372.5469 250.3594,372.5469 Q251.2969,372.5469 251.9531,372.2969 Q252.3438,372.1406 252.7656,371.7031 Q253.0313,371.4375 253.1719,371.3594 Q253.3281,371.2813 253.5313,371.2813 Q253.8594,371.2813 254.1094,371.5469 Q254.375,371.7969 254.375,372.1406 Q254.375,372.4844 254.0313,372.8906 Q253.5313,373.4688 252.7344,373.7969 Q251.6563,374.25 250.3594,374.25 Q248.8438,374.25 247.6406,373.625 Q246.6563,373.125 245.9688,372.0625 Q245.2813,370.9844 245.2813,369.7031 L245.2813,368.5469 Q245.2813,367.2188 245.8906,366.0781 Q246.5156,364.9219 247.6094,364.3125 Q248.7031,363.6875 249.9375,363.6875 Q250.6719,363.6875 251.3125,363.8594 Q251.9688,364.0156 252.5156,364.375 Z " fill="#000000"/><text fill="#000000" font-family="sans-serif" font-size="14" lengthAdjust="spacing" textLength="65" x="270.25" y="374.2285">Secretaire</text><line style="stroke:#000000;stroke-width:0.5;" x1="166.5" x2="406.5" y1="384.5" y2="384.5"/><line style="stroke:#000000;stroke-width:0.5;" x1="166.5" x2="406.5" y1="392.5" y2="392.5"/><text fill="#000000" font-family="sans-serif" font-size="14" lengthAdjust="spacing" textLength="212" x="171.5" y="411.0332">+creerCourrier(c : Courrier) : void</text><text fill="#000000" font-family="sans-serif" font-size="14" lengthAdjust="spacing" textLength="230" x="171.5" y="428.6426">+recevoirCourrier(c : Courrier) : void</text></g><!--class ChefDePoste--><g id="elem_ChefDePoste"><rect codeLine="29" fill="#FFFFFF" height="65.6094" id="ChefDePoste" rx="2.5" ry="2.5" style="stroke:#000000;stroke-width:0.5;" width="233" x="433" y="1174"/><ellipse cx="503.25" cy="1190" fill="#ADD1B2" rx="11" ry="11" style="stroke:#181818;stroke-width:1.0;"/><path d="M506.0156,1185.875 Q506.1719,1185.6563 506.3594,1185.5469 Q506.5469,1185.4375 506.7656,1185.4375 Q507.1406,1185.4375 507.375,1185.7031 Q507.6094,1185.9531 507.6094,1186.5625 L507.6094,1188.0156 Q507.6094,1188.625 507.375,1188.8906 Q507.1406,1189.1563 506.7656,1189.1563 Q506.4219,1189.1563 506.2188,1188.9531 Q506.0156,1188.7656 505.9063,1188.25 Q505.8594,1187.8906 505.6719,1187.7031 Q505.3438,1187.3281 504.7344,1187.1094 Q504.125,1186.8906 503.5,1186.8906 Q502.7344,1186.8906 502.0938,1187.2188 Q501.4688,1187.5469 500.9688,1188.2969 Q500.4844,1189.0469 500.4844,1190.0781 L500.4844,1191.1719 Q500.4844,1192.4063 501.375,1193.2344 Q502.2656,1194.0469 503.8594,1194.0469 Q504.7969,1194.0469 505.4531,1193.7969 Q505.8438,1193.6406 506.2656,1193.2031 Q506.5313,1192.9375 506.6719,1192.8594 Q506.8281,1192.7813 507.0313,1192.7813 Q507.3594,1192.7813 507.6094,1193.0469 Q507.875,1193.2969 507.875,1193.6406 Q507.875,1193.9844 507.5313,1194.3906 Q507.0313,1194.9688 506.2344,1195.2969 Q505.1563,1195.75 503.8594,1195.75 Q502.3438,1195.75 501.1406,1195.125 Q500.1563,1194.625 499.4688,1193.5625 Q498.7813,1192.4844 498.7813,1191.2031 L498.7813,1190.0469 Q498.7813,1188.7188 499.3906,1187.5781 Q500.0156,1186.4219 501.1094,1185.8125 Q502.2031,1185.1875 503.4375,1185.1875 Q504.1719,1185.1875 504.8125,1185.3594 Q505.4688,1185.5156 506.0156,1185.875 Z " fill="#000000"/><text fill="#000000" font-family="sans-serif" font-size="14" lengthAdjust="spacing" textLength="84" x="523.75" y="1195.7285">ChefDePoste</text><line style="stroke:#000000;stroke-width:0.5;" x1="434" x2="665" y1="1206" y2="1206"/><line style="stroke:#000000;stroke-width:0.5;" x1="434" x2="665" y1="1214" y2="1214"/><text fill="#000000" font-family="sans-serif" font-size="14" lengthAdjust="spacing" textLength="221" x="439" y="1232.5332">+validerCourrier(c : Courrier) : void</text></g><!--class Administrateur--><g id="elem_Administrateur"><rect codeLine="33" fill="#FFFFFF" height="65.6094" id="Administrateur" rx="2.5" ry="2.5" style="stroke:#000000;stroke-width:0.5;" width="241" x="7" y="527"/><ellipse cx="77.75" cy="543" fill="#ADD1B2" rx="11" ry="11" style="stroke:#181818;stroke-width:1.0;"/><path d="M80.5156,538.875 Q80.6719,538.6563 80.8594,538.5469 Q81.0469,538.4375 81.2656,538.4375 Q81.6406,538.4375 81.875,538.7031 Q82.1094,538.9531 82.1094,539.5625 L82.1094,541.0156 Q82.1094,541.625 81.875,541.8906 Q81.6406,542.1563 81.2656,542.1563 Q80.9219,542.1563 80.7188,541.9531 Q80.5156,541.7656 80.4063,541.25 Q80.3594,540.8906 80.1719,540.7031 Q79.8438,540.3281 79.2344,540.1094 Q78.625,539.8906 78,539.8906 Q77.2344,539.8906 76.5938,540.2188 Q75.9688,540.5469 75.4688,541.2969 Q74.9844,542.0469 74.9844,543.0781 L74.9844,544.1719 Q74.9844,545.4063 75.875,546.2344 Q76.7656,547.0469 78.3594,547.0469 Q79.2969,547.0469 79.9531,546.7969 Q80.3438,546.6406 80.7656,546.2031 Q81.0313,545.9375 81.1719,545.8594 Q81.3281,545.7813 81.5313,545.7813 Q81.8594,545.7813 82.1094,546.0469 Q82.375,546.2969 82.375,546.6406 Q82.375,546.9844 82.0313,547.3906 Q81.5313,547.9688 80.7344,548.2969 Q79.6563,548.75 78.3594,548.75 Q76.8438,548.75 75.6406,548.125 Q74.6563,547.625 73.9688,546.5625 Q73.2813,545.4844 73.2813,544.2031 L73.2813,543.0469 Q73.2813,541.7188 73.8906,540.5781 Q74.5156,539.4219 75.6094,538.8125 Q76.7031,538.1875 77.9375,538.1875 Q78.6719,538.1875 79.3125,538.3594 Q79.9688,538.5156 80.5156,538.875 Z " fill="#000000"/><text fill="#000000" font-family="sans-serif" font-size="14" lengthAdjust="spacing" textLength="91" x="98.25" y="548.7285">Administrateur</text><line style="stroke:#000000;stroke-width:0.5;" x1="8" x2="247" y1="559" y2="559"/><line style="stroke:#000000;stroke-width:0.5;" x1="8" x2="247" y1="567" y2="567"/><text fill="#000000" font-family="sans-serif" font-size="14" lengthAdjust="spacing" textLength="229" x="13" y="585.5332">+gererNiveauxConfidentialite() : void</text></g><!--class Courrier--><g id="elem_Courrier"><rect codeLine="44" fill="#FFFFFF" height="259.3125" id="Courrier" rx="2.5" ry="2.5" style="stroke:#000000;stroke-width:0.5;" width="310" x="203.5" y="623"/><ellipse cx="328.25" cy="639" fill="#ADD1B2" rx="11" ry="11" style="stroke:#181818;stroke-width:1.0;"/><path d="M331.0156,634.875 Q331.1719,634.6563 331.3594,634.5469 Q331.5469,634.4375 331.7656,634.4375 Q332.1406,634.4375 332.375,634.7031 Q332.6094,634.9531 332.6094,635.5625 L332.6094,637.0156 Q332.6094,637.625 332.375,637.8906 Q332.1406,638.1563 331.7656,638.1563 Q331.4219,638.1563 331.2188,637.9531 Q331.0156,637.7656 330.9063,637.25 Q330.8594,636.8906 330.6719,636.7031 Q330.3438,636.3281 329.7344,636.1094 Q329.125,635.8906 328.5,635.8906 Q327.7344,635.8906 327.0938,636.2188 Q326.4688,636.5469 325.9688,637.2969 Q325.4844,638.0469 325.4844,639.0781 L325.4844,640.1719 Q325.4844,641.4063 326.375,642.2344 Q327.2656,643.0469 328.8594,643.0469 Q329.7969,643.0469 330.4531,642.7969 Q330.8438,642.6406 331.2656,642.2031 Q331.5313,641.9375 331.6719,641.8594 Q331.8281,641.7813 332.0313,641.7813 Q332.3594,641.7813 332.6094,642.0469 Q332.875,642.2969 332.875,642.6406 Q332.875,642.9844 332.5313,643.3906 Q332.0313,643.9688 331.2344,644.2969 Q330.1563,644.75 328.8594,644.75 Q327.3438,644.75 326.1406,644.125 Q325.1563,643.625 324.4688,642.5625 Q323.7813,641.4844 323.7813,640.2031 L323.7813,639.0469 Q323.7813,637.7188 324.3906,636.5781 Q325.0156,635.4219 326.1094,634.8125 Q327.2031,634.1875 328.4375,634.1875 Q329.1719,634.1875 329.8125,634.3594 Q330.4688,634.5156 331.0156,634.875 Z " fill="#000000"/><text fill="#000000" font-family="sans-serif" font-size="14" lengthAdjust="spacing" textLength="52" x="348.75" y="644.7285">Courrier</text><line style="stroke:#000000;stroke-width:0.5;" x1="204.5" x2="512.5" y1="655" y2="655"/><text fill="#000000" font-family="sans-serif" font-size="14" lengthAdjust="spacing" textLength="43" x="209.5" y="673.5332">-id : int</text><text fill="#000000" font-family="sans-serif" font-size="14" lengthAdjust="spacing" textLength="102" x="209.5" y="691.1426">-numero : String</text><text fill="#000000" font-family="sans-serif" font-size="14" lengthAdjust="spacing" textLength="85" x="209.5" y="708.752">-objet : String</text><text fill="#000000" font-family="sans-serif" font-size="14" lengthAdjust="spacing" textLength="81" x="209.5" y="726.3613">-type : String</text><text fill="#000000" font-family="sans-serif" font-size="14" lengthAdjust="spacing" textLength="142" x="209.5" y="743.9707">-cheminFichier : String</text><text fill="#000000" font-family="sans-serif" font-size="14" lengthAdjust="spacing" textLength="129" x="209.5" y="761.5801">-dateCreation : Date</text><text fill="#000000" font-family="sans-serif" font-size="14" lengthAdjust="spacing" textLength="139" x="209.5" y="779.1895">-dateReception : Date</text><text fill="#000000" font-family="sans-serif" font-size="14" lengthAdjust="spacing" textLength="120" x="209.5" y="796.7988">-expediteur : String</text><text fill="#000000" font-family="sans-serif" font-size="14" lengthAdjust="spacing" textLength="141" x="209.5" y="814.4082">-statut : StatutCourrier</text><line style="stroke:#000000;stroke-width:0.5;" x1="204.5" x2="512.5" y1="821.4844" y2="821.4844"/><text fill="#000000" font-family="sans-serif" font-size="14" lengthAdjust="spacing" textLength="298" x="209.5" y="840.0176">+classifier(niveau : NiveauConfidentialite) : void</text><text fill="#000000" font-family="sans-serif" font-size="14" lengthAdjust="spacing" textLength="107" x="209.5" y="857.627">+archiver() : void</text><text fill="#000000" font-family="sans-serif" font-size="14" lengthAdjust="spacing" textLength="223" x="209.5" y="875.2363">+estVisible(u : Utilisateur) : boolean</text></g><!--class StatutCourrier--><g id="elem_StatutCourrier"><rect codeLine="59" fill="#FFFFFF" height="136.0469" id="StatutCourrier" rx="2.5" ry="2.5" style="stroke:#000000;stroke-width:0.5;" width="121" x="298" y="960"/><ellipse cx="313" cy="976" fill="#EB937F" rx="11" ry="11" style="stroke:#181818;stroke-width:1.0;"/><path d="M311.8594,976.7969 L311.8594,979.2969 L316.1875,979.2969 L316.1875,978.375 Q316.1875,977.7656 316.4219,977.5 Q316.6719,977.2344 317.0469,977.2344 Q317.4219,977.2344 317.6563,977.5 Q317.8906,977.7656 317.8906,978.375 L317.8906,981 L309.8906,981 Q309.2656,981 309,980.7656 Q308.75,980.5313 308.75,980.1406 Q308.75,979.7656 309.0156,979.5313 Q309.2813,979.2969 309.8906,979.2969 L310.1563,979.2969 L310.1563,972.6406 L309.8906,972.6406 Q309.2656,972.6406 309,972.4063 Q308.75,972.1719 308.75,971.7813 Q308.75,971.4063 309,971.1719 Q309.2656,970.9375 309.8906,970.9375 L317.5156,970.9375 L317.5156,973.5313 Q317.5156,974.1406 317.2813,974.4063 Q317.0625,974.6563 316.6719,974.6563 Q316.2969,974.6563 316.0625,974.4063 Q315.8281,974.1406 315.8281,973.5313 L315.8281,972.6406 L311.8594,972.6406 L311.8594,975.0938 L313.3438,975.0938 Q313.3438,974.4375 313.4688,974.25 Q313.7344,973.8438 314.2031,973.8438 Q314.5781,973.8438 314.8125,974.1094 Q315.0469,974.3594 315.0469,974.9688 L315.0469,976.9375 Q315.0469,977.4844 314.9219,977.6719 Q314.6563,978.0625 314.2031,978.0625 Q313.7344,978.0625 313.4688,977.6563 Q313.3438,977.4688 313.3438,976.7969 L311.8594,976.7969 Z " fill="#000000"/><text fill="#000000" font-family="sans-serif" font-size="14" lengthAdjust="spacing" textLength="89" x="327" y="981.7285">StatutCourrier</text><line style="stroke:#000000;stroke-width:0.5;" x1="299" x2="418" y1="992" y2="992"/><text fill="#000000" font-family="sans-serif" font-size="14" lengthAdjust="spacing" textLength="38" x="304" y="1010.5332">CREE</text><text fill="#000000" font-family="sans-serif" font-size="14" lengthAdjust="spacing" textLength="38" x="304" y="1028.1426">RECU</text><text fill="#000000" font-family="sans-serif" font-size="14" lengthAdjust="spacing" textLength="69" x="304" y="1045.752">TRANSMIS</text><text fill="#000000" font-family="sans-serif" font-size="14" lengthAdjust="spacing" textLength="48" x="304" y="1063.3613">VALIDE</text><text fill="#000000" font-family="sans-serif" font-size="14" lengthAdjust="spacing" textLength="59" x="304" y="1080.9707">ARCHIVE</text><line style="stroke:#000000;stroke-width:0.5;" x1="299" x2="418" y1="1088.0469" y2="1088.0469"/></g><!--class NiveauConfidentialite--><g id="elem_NiveauConfidentialite"><rect codeLine="67" fill="#FFFFFF" height="100.8281" id="NiveauConfidentialite" rx="2.5" ry="2.5" style="stroke:#000000;stroke-width:0.5;" width="165" x="79" y="977.5"/><ellipse cx="94" cy="993.5" fill="#ADD1B2" rx="11" ry="11" style="stroke:#181818;stroke-width:1.0;"/><path d="M96.7656,989.375 Q96.9219,989.1563 97.1094,989.0469 Q97.2969,988.9375 97.5156,988.9375 Q97.8906,988.9375 98.125,989.2031 Q98.3594,989.4531 98.3594,990.0625 L98.3594,991.5156 Q98.3594,992.125 98.125,992.3906 Q97.8906,992.6563 97.5156,992.6563 Q97.1719,992.6563 96.9688,992.4531 Q96.7656,992.2656 96.6563,991.75 Q96.6094,991.3906 96.4219,991.2031 Q96.0938,990.8281 95.4844,990.6094 Q94.875,990.3906 94.25,990.3906 Q93.4844,990.3906 92.8438,990.7188 Q92.2188,991.0469 91.7188,991.7969 Q91.2344,992.5469 91.2344,993.5781 L91.2344,994.6719 Q91.2344,995.9063 92.125,996.7344 Q93.0156,997.5469 94.6094,997.5469 Q95.5469,997.5469 96.2031,997.2969 Q96.5938,997.1406 97.0156,996.7031 Q97.2813,996.4375 97.4219,996.3594 Q97.5781,996.2813 97.7813,996.2813 Q98.1094,996.2813 98.3594,996.5469 Q98.625,996.7969 98.625,997.1406 Q98.625,997.4844 98.2813,997.8906 Q97.7813,998.4688 96.9844,998.7969 Q95.9063,999.25 94.6094,999.25 Q93.0938,999.25 91.8906,998.625 Q90.9063,998.125 90.2188,997.0625 Q89.5313,995.9844 89.5313,994.7031 L89.5313,993.5469 Q89.5313,992.2188 90.1406,991.0781 Q90.7656,989.9219 91.8594,989.3125 Q92.9531,988.6875 94.1875,988.6875 Q94.9219,988.6875 95.5625,988.8594 Q96.2188,989.0156 96.7656,989.375 Z " fill="#000000"/><text fill="#000000" font-family="sans-serif" font-size="14" lengthAdjust="spacing" textLength="133" x="108" y="999.2285">NiveauConfidentialite</text><line style="stroke:#000000;stroke-width:0.5;" x1="80" x2="243" y1="1009.5" y2="1009.5"/><text fill="#000000" font-family="sans-serif" font-size="14" lengthAdjust="spacing" textLength="43" x="85" y="1028.0332">-id : int</text><text fill="#000000" font-family="sans-serif" font-size="14" lengthAdjust="spacing" textLength="90" x="85" y="1045.6426">-libelle : String</text><text fill="#000000" font-family="sans-serif" font-size="14" lengthAdjust="spacing" textLength="61" x="85" y="1063.252">-rang : int</text><line style="stroke:#000000;stroke-width:0.5;" x1="80" x2="243" y1="1070.3281" y2="1070.3281"/></g><!--class Message--><g id="elem_Message"><rect codeLine="77" fill="#FFFFFF" height="206.4844" id="Message" rx="2.5" ry="2.5" style="stroke:#000000;stroke-width:0.5;" width="165" x="733" y="291"/><ellipse cx="782.75" cy="307" fill="#ADD1B2" rx="11" ry="11" style="stroke:#181818;stroke-width:1.0;"/><path d="M785.5156,302.875 Q785.6719,302.6563 785.8594,302.5469 Q786.0469,302.4375 786.2656,302.4375 Q786.6406,302.4375 786.875,302.7031 Q787.1094,302.9531 787.1094,303.5625 L787.1094,305.0156 Q787.1094,305.625 786.875,305.8906 Q786.6406,306.1563 786.2656,306.1563 Q785.9219,306.1563 785.7188,305.9531 Q785.5156,305.7656 785.4063,305.25 Q785.3594,304.8906 785.1719,304.7031 Q784.8438,304.3281 784.2344,304.1094 Q783.625,303.8906 783,303.8906 Q782.2344,303.8906 781.5938,304.2188 Q780.9688,304.5469 780.4688,305.2969 Q779.9844,306.0469 779.9844,307.0781 L779.9844,308.1719 Q779.9844,309.4063 780.875,310.2344 Q781.7656,311.0469 783.3594,311.0469 Q784.2969,311.0469 784.9531,310.7969 Q785.3438,310.6406 785.7656,310.2031 Q786.0313,309.9375 786.1719,309.8594 Q786.3281,309.7813 786.5313,309.7813 Q786.8594,309.7813 787.1094,310.0469 Q787.375,310.2969 787.375,310.6406 Q787.375,310.9844 787.0313,311.3906 Q786.5313,311.9688 785.7344,312.2969 Q784.6563,312.75 783.3594,312.75 Q781.8438,312.75 780.6406,312.125 Q779.6563,311.625 778.9688,310.5625 Q778.2813,309.4844 778.2813,308.2031 L778.2813,307.0469 Q778.2813,305.7188 778.8906,304.5781 Q779.5156,303.4219 780.6094,302.8125 Q781.7031,302.1875 782.9375,302.1875 Q783.6719,302.1875 784.3125,302.3594 Q784.9688,302.5156 785.5156,302.875 Z " fill="#000000"/><text fill="#000000" font-family="sans-serif" font-size="14" lengthAdjust="spacing" textLength="57" x="803.25" y="312.7285">Message</text><line style="stroke:#000000;stroke-width:0.5;" x1="734" x2="897" y1="323" y2="323"/><text fill="#000000" font-family="sans-serif" font-size="14" lengthAdjust="spacing" textLength="43" x="739" y="341.5332">-id : int</text><text fill="#000000" font-family="sans-serif" font-size="14" lengthAdjust="spacing" textLength="105" x="739" y="359.1426">-contenu : String</text><text fill="#000000" font-family="sans-serif" font-size="14" lengthAdjust="spacing" textLength="110" x="739" y="376.752">-dateEnvoi : Date</text><text fill="#000000" font-family="sans-serif" font-size="14" lengthAdjust="spacing" textLength="79" x="739" y="394.3613">-lu : boolean</text><text fill="#000000" font-family="sans-serif" font-size="14" lengthAdjust="spacing" textLength="135" x="739" y="411.9707">-emetteur : Utilisateur</text><text fill="#000000" font-family="sans-serif" font-size="14" lengthAdjust="spacing" textLength="153" x="739" y="429.5801">-destinataire : Utilisateur</text><text fill="#000000" font-family="sans-serif" font-size="14" lengthAdjust="spacing" textLength="118" x="739" y="447.1895">-courrier : Courrier</text><line style="stroke:#000000;stroke-width:0.5;" x1="734" x2="897" y1="454.2656" y2="454.2656"/><text fill="#000000" font-family="sans-serif" font-size="14" lengthAdjust="spacing" textLength="107" x="739" y="472.7988">+envoyer() : void</text><text fill="#000000" font-family="sans-serif" font-size="14" lengthAdjust="spacing" textLength="125" x="739" y="490.4082">+marquerLu() : void</text></g><!--class Service--><g id="elem_Service"><rect codeLine="92" fill="#FFFFFF" height="83.2188" id="Service" rx="2.5" ry="2.5" style="stroke:#000000;stroke-width:0.5;" width="102" x="482.5" y="986.5"/><ellipse cx="507.85" cy="1002.5" fill="#ADD1B2" rx="11" ry="11" style="stroke:#181818;stroke-width:1.0;"/><path d="M510.6156,998.375 Q510.7719,998.1563 510.9594,998.0469 Q511.1469,997.9375 511.3656,997.9375 Q511.7406,997.9375 511.975,998.2031 Q512.2094,998.4531 512.2094,999.0625 L512.2094,1000.5156 Q512.2094,1001.125 511.975,1001.3906 Q511.7406,1001.6563 511.3656,1001.6563 Q511.0219,1001.6563 510.8188,1001.4531 Q510.6156,1001.2656 510.5063,1000.75 Q510.4594,1000.3906 510.2719,1000.2031 Q509.9438,999.8281 509.3344,999.6094 Q508.725,999.3906 508.1,999.3906 Q507.3344,999.3906 506.6938,999.7188 Q506.0688,1000.0469 505.5688,1000.7969 Q505.0844,1001.5469 505.0844,1002.5781 L505.0844,1003.6719 Q505.0844,1004.9063 505.975,1005.7344 Q506.8656,1006.5469 508.4594,1006.5469 Q509.3969,1006.5469 510.0531,1006.2969 Q510.4438,1006.1406 510.8656,1005.7031 Q511.1313,1005.4375 511.2719,1005.3594 Q511.4281,1005.2813 511.6313,1005.2813 Q511.9594,1005.2813 512.2094,1005.5469 Q512.475,1005.7969 512.475,1006.1406 Q512.475,1006.4844 512.1313,1006.8906 Q511.6313,1007.4688 510.8344,1007.7969 Q509.7563,1008.25 508.4594,1008.25 Q506.9438,1008.25 505.7406,1007.625 Q504.7563,1007.125 504.0688,1006.0625 Q503.3813,1004.9844 503.3813,1003.7031 L503.3813,1002.5469 Q503.3813,1001.2188 503.9906,1000.0781 Q504.6156,998.9219 505.7094,998.3125 Q506.8031,997.6875 508.0375,997.6875 Q508.7719,997.6875 509.4125,997.8594 Q510.0688,998.0156 510.6156,998.375 Z " fill="#000000"/><text fill="#000000" font-family="sans-serif" font-size="14" lengthAdjust="spacing" textLength="47" x="524.15" y="1008.2285">Service</text><line style="stroke:#000000;stroke-width:0.5;" x1="483.5" x2="583.5" y1="1018.5" y2="1018.5"/><text fill="#000000" font-family="sans-serif" font-size="14" lengthAdjust="spacing" textLength="43" x="488.5" y="1037.0332">-id : int</text><text fill="#000000" font-family="sans-serif" font-size="14" lengthAdjust="spacing" textLength="90" x="488.5" y="1054.6426">-libelle : String</text><line style="stroke:#000000;stroke-width:0.5;" x1="483.5" x2="583.5" y1="1061.7188" y2="1061.7188"/></g><!--reverse link Utilisateur to Secretaire--><g id="link_Utilisateur_Secretaire"><path codeLine="37" d="M461.5681,225.6475 C411.2781,273.7175 367.17,315.88 329.21,352.17 " fill="none" id="Utilisateur-backto-Secretaire" style="stroke:#000000;stroke-width:1.0;"/><polygon fill="none" points="474.58,213.21,457.4223,221.3102,465.7139,229.9848,474.58,213.21" style="stroke:#000000;stroke-width:1.0;"/></g><!--reverse link Utilisateur to ChefDePoste--><g id="link_Utilisateur_ChefDePoste"><path codeLine="38" d="M632.3799,229.9832 C651.5699,282.6732 663.5,331.69 663.5,393 C663.5,393 663.5,393 663.5,1029 C663.5,1081.04 670.17,1100.57 641.5,1144 C633.86,1155.57 623.24,1165.54 611.92,1173.89 " fill="none" id="Utilisateur-backto-ChefDePoste" style="stroke:#000000;stroke-width:1.0;"/><polygon fill="none" points="626.22,213.07,626.7422,232.0365,638.0176,227.9299,626.22,213.07" style="stroke:#000000;stroke-width:1.0;"/></g><!--reverse link Utilisateur to Administrateur--><g id="link_Utilisateur_Administrateur"><path codeLine="39" d="M374.0257,147.5455 C285.4457,172.5255 204.56,212.09 147.5,291 C96.24,361.89 109.34,472.7 120.02,526.93 " fill="none" id="Utilisateur-backto-Administrateur" style="stroke:#000000;stroke-width:1.0;"/><polygon fill="none" points="391.35,142.66,372.3972,141.7708,375.6542,153.3203,391.35,142.66" style="stroke:#000000;stroke-width:1.0;"/></g><!--link Courrier to StatutCourrier--><g id="link_Courrier_StatutCourrier"><path codeLine="100" d="M358.5,882.24 C358.5,909.12 358.5,930.41 358.5,953.95 " fill="none" id="Courrier-to-StatutCourrier" style="stroke:#000000;stroke-width:1.0;"/><polygon fill="#000000" points="358.5,959.95,362.5,950.95,358.5,954.95,354.5,950.95,358.5,959.95" style="stroke:#000000;stroke-width:1.0;"/><text fill="#000000" font-family="sans-serif" font-size="13" lengthAdjust="spacing" textLength="44" x="359.5" y="926.4951">a statut</text></g><!--link Courrier to NiveauConfidentialite--><g id="link_Courrier_NiveauConfidentialite"><path codeLine="102" d="M265.77,882.24 C241.42,916.05 220.1078,945.6422 200.7878,972.4522 " fill="none" id="Courrier-to-NiveauConfidentialite" style="stroke:#000000;stroke-width:1.0;"/><polygon fill="#000000" points="197.28,977.32,205.7869,972.3569,200.2032,973.2635,199.2966,967.6798,197.28,977.32" style="stroke:#000000;stroke-width:1.0;"/><text fill="#000000" font-family="sans-serif" font-size="13" lengthAdjust="spacing" textLength="7" x="253.2067" y="903.6993">1</text><text fill="#000000" font-family="sans-serif" font-size="13" lengthAdjust="spacing" textLength="7" x="194.8194" y="966.6">1</text></g><!--link Administrateur to NiveauConfidentialite--><g id="link_Administrateur_NiveauConfidentialite"><path codeLine="103" d="M129.84,593.03 C135.67,672.92 150.4434,875.4459 157.4434,971.3959 " fill="none" id="Administrateur-to-NiveauConfidentialite" style="stroke:#000000;stroke-width:1.0;"/><polygon fill="#000000" points="157.88,977.38,161.2145,968.1128,157.5162,972.3933,153.2358,968.6949,157.88,977.38" style="stroke:#000000;stroke-width:1.0;"/><text fill="#000000" font-family="sans-serif" font-size="13" lengthAdjust="spacing" textLength="25" x="152.5" y="757.9951">g&#233;re</text><text fill="#000000" font-family="sans-serif" font-size="13" lengthAdjust="spacing" textLength="7" x="122.6261" y="614.1584">1</text><text fill="#000000" font-family="sans-serif" font-size="13" lengthAdjust="spacing" textLength="7" x="149.8788" y="966.6685">1</text></g><!--link Utilisateur to Message--><g id="link_Utilisateur_Message"><path codeLine="105" d="M767.32,213.26 C776.31,222.5 784.49,232.4 791.5,243 C800.95,257.3 805.7767,268.1693 809.7667,285.1393 " fill="none" id="Utilisateur-to-Message" style="stroke:#000000;stroke-width:1.0;"/><polygon fill="#000000" points="811.14,290.98,812.9739,281.3034,809.9956,286.1127,805.1863,283.1344,811.14,290.98" style="stroke:#000000;stroke-width:1.0;"/><text fill="#000000" font-family="sans-serif" font-size="13" lengthAdjust="spacing" textLength="51" x="802.5" y="257.4951">emetteur</text><text fill="#000000" font-family="sans-serif" font-size="13" lengthAdjust="spacing" textLength="7" x="773.7091" y="234.9209">1</text><text fill="#000000" font-family="sans-serif" font-size="13" lengthAdjust="spacing" textLength="5" x="805.6148" y="279.9701">*</text></g><!--reverse link Utilisateur to Message--><g id="link_Utilisateur_Message"><path codeLine="106" d="M670.1417,217.8271 C691.8517,243.9871 711.34,267.47 732.93,293.5 " fill="none" id="Utilisateur-backto-Message" style="stroke:#000000;stroke-width:1.0;"/><polygon fill="#000000" points="666.31,213.21,668.9795,222.6902,669.5031,217.0576,675.1357,217.5812,666.31,213.21" style="stroke:#000000;stroke-width:1.0;"/><text fill="#000000" font-family="sans-serif" font-size="13" lengthAdjust="spacing" textLength="67" x="707.5" y="257.4951">destinataire</text><text fill="#000000" font-family="sans-serif" font-size="13" lengthAdjust="spacing" textLength="7" x="665.2812" y="234.8672">1</text><text fill="#000000" font-family="sans-serif" font-size="13" lengthAdjust="spacing" textLength="5" x="720.0876" y="280.9867">*</text></g><!--link Secretaire to Courrier--><g id="link_Secretaire_Courrier"><path codeLine="107" d="M294.69,435.55 C303.85,480.9 317.9625,550.7687 331.2825,616.7387 " fill="none" id="Secretaire-to-Courrier" style="stroke:#000000;stroke-width:1.0;"/><polygon fill="#000000" points="332.47,622.62,334.6096,613.0064,331.4804,617.7189,326.7679,614.5897,332.47,622.62" style="stroke:#000000;stroke-width:1.0;"/><text fill="#000000" font-family="sans-serif" font-size="13" lengthAdjust="spacing" textLength="69" x="326.5" y="565.4951">cr&#233;e / re&#231;oit</text><text fill="#000000" font-family="sans-serif" font-size="13" lengthAdjust="spacing" textLength="7" x="288.4668" y="457.2628">1</text><text fill="#000000" font-family="sans-serif" font-size="13" lengthAdjust="spacing" textLength="5" x="325.8206" y="612.1451">*</text></g><!--link Utilisateur to Courrier--><g id="link_Utilisateur_Courrier"><path codeLine="108" d="M535.78,213.11 C525.04,238.37 513.97,265.51 504.5,291 C463.4,401.66 425.0742,524.0901 397.3542,617.0701 " fill="none" id="Utilisateur-to-Courrier" style="stroke:#000000;stroke-width:1.0;"/><polygon fill="#000000" points="395.64,622.82,402.0446,615.3379,397.0685,618.0284,394.378,613.0523,395.64,622.82" style="stroke:#000000;stroke-width:1.0;"/><text fill="#000000" font-family="sans-serif" font-size="13" lengthAdjust="spacing" textLength="49" x="505.5" y="399.4951">consulte</text><text fill="#000000" font-family="sans-serif" font-size="13" lengthAdjust="spacing" textLength="20" x="511.5139" y="235.1069">0..*</text><text fill="#000000" font-family="sans-serif" font-size="13" lengthAdjust="spacing" textLength="5" x="392.6426" y="612.3566">*</text></g><!--link Utilisateur to Service--><g id="link_Utilisateur_Service"><path codeLine="109" d="M576.13,213.41 C565.63,413.92 543.064,844.5582 535.964,980.0582 " fill="none" id="Utilisateur-to-Service" style="stroke:#000000;stroke-width:1.0;"/><polygon fill="#000000" points="535.65,986.05,540.1155,977.2716,535.9116,981.0568,532.1264,976.853,535.65,986.05" style="stroke:#000000;stroke-width:1.0;"/><text fill="#000000" font-family="sans-serif" font-size="13" lengthAdjust="spacing" textLength="68" x="560.5" y="565.4951">appartient &#224;</text><text fill="#000000" font-family="sans-serif" font-size="13" lengthAdjust="spacing" textLength="20" x="555.0013" y="235.0819">1..*</text><text fill="#000000" font-family="sans-serif" font-size="13" lengthAdjust="spacing" textLength="7" x="528.4348" y="975.5949">1</text></g><!--link Courrier to Service--><g id="link_Courrier_Service"><path codeLine="110" d="M440.88,882.24 C464.99,919.93 486.3855,953.3765 504.1855,981.1865 " fill="none" id="Courrier-to-Service" style="stroke:#000000;stroke-width:1.0;"/><polygon fill="#000000" points="507.42,986.24,505.9372,976.5034,504.7246,982.0288,499.1992,980.8161,507.42,986.24" style="stroke:#000000;stroke-width:1.0;"/><text fill="#000000" font-family="sans-serif" font-size="13" lengthAdjust="spacing" textLength="5" x="440.4981" y="903.6993">*</text><text fill="#000000" font-family="sans-serif" font-size="13" lengthAdjust="spacing" textLength="5" x="497.6864" y="975.5046">*</text></g><!--reverse link Service to ChefDePoste--><g id="link_Service_ChefDePoste"><path codeLine="111" d="M478.2675,1073.4419 C457.2575,1095.0519 444.85,1118.19 458.5,1144 C464.67,1155.66 474.12,1165.54 484.64,1173.75 " fill="none" id="Service-backto-ChefDePoste" style="stroke:#000000;stroke-width:1.0;"/><polygon fill="#000000" points="482.45,1069.14,473.3083,1072.8046,478.9646,1072.725,479.0442,1078.3812,482.45,1069.14" style="stroke:#000000;stroke-width:1.0;"/><text fill="#000000" font-family="sans-serif" font-size="13" lengthAdjust="spacing" textLength="46" x="459.5" y="1140.4951">est chef</text><text fill="#000000" font-family="sans-serif" font-size="13" lengthAdjust="spacing" textLength="7" x="467.438" y="1071.5123">1</text><text fill="#000000" font-family="sans-serif" font-size="13" lengthAdjust="spacing" textLength="7" x="464.1816" y="1163.1971">1</text></g><!--reverse link Service to ChefDePoste--><g id="link_Service_ChefDePoste"><path codeLine="112" d="M537.7101,1075.5856 C540.5701,1107.2256 543.95,1144.57 546.59,1173.84 " fill="none" id="Service-backto-ChefDePoste-1" style="stroke:#000000;stroke-width:1.0;"/><polygon fill="#000000" points="537.17,1069.61,533.9965,1078.9336,537.6201,1074.5897,541.964,1078.2134,537.17,1069.61" style="stroke:#000000;stroke-width:1.0;"/><text fill="#000000" font-family="sans-serif" font-size="13" lengthAdjust="spacing" textLength="89" x="545.5" y="1140.4951">envoyer Courier</text><text fill="#000000" font-family="sans-serif" font-size="13" lengthAdjust="spacing" textLength="7" x="530.1982" y="1091.3328">1</text><text fill="#000000" font-family="sans-serif" font-size="13" lengthAdjust="spacing" textLength="5" x="540.4742" y="1162.9224">*</text></g><!--SRC=[ZLRRRXen47tVhx3oKfgKD7r5QIH2g8gKH1KqwRFP7PPfZ4rjBqbw-PU-LVaEVgpZlM7l4c0bjEkvUNpcp1ZpW7B9DLymC-U9UaIPiXaN1Y9JQsB1ZUbRgt6QMHZ5Iaxm9x2pfWdx5J5soUE7LAjC9WCbb6RVvcZ1oPLEG1UoIq569EjhhHvzqPyeUiC-llQGxiwYGCCjPDhiDELJOpMFRPcPvvTdsMMOi1v3QVE5L0jQJUY4Ciq5Imqj6ImuYb146-2CH5Eb1719iXDce9_PEKZI8EZEsuQQq3EPi0wAJElAuXgDFQya5xcXXdWEslrgorWJbXhg75xn1BbIpw1lm1YUGcTXKh8hL-zO0iRIsaF4XLafJ1py1LmJY3LOZhJNho9h3NuUv50jQkSoPw357ijwcy4SPbVmHHbRxRFY0XCurB-VB52YAtHTs1EM4aBw5bV0iwU1aZEAHxMWk1OwVWYV4kU_krtlq6sTbsbR6QQnZyBLSNQQbVYKfbifcor0gv2EQleTR2Yopqi89SGeIlSJndCNEL0bT8211cvHIT9SyRnp2_cOIhjiAk1f2GdcI0I1ZEKsAp9n7_MHSogvenMz8VCgaLbHhaQr0cPnwWGoqfr0IbI-HuDJ0PsipUcgxQZOG70raib17Oo7GtgDXuCxUdqTzsydDwC9VTxthqTNJjKV3pwFxeSRqctDTLk514v1Y0RwcikqjA68UwXIzkm1J2ajjwL10yVIyTkL7jAOGB-Q8WjcbPjuOClYUj0M0GXwbBoO4MrrN86yQLz_D8LLN73z8mDzdGNzkHkQ2UWLneT0KreULA6zsuv1vDsn-_AfATRjNZHPj-NfCLvsJBHnFVfmbBkxzrRAHU7OsMjVx9IkNsY-1JEizZm-gdaKfbVneELsJjFlTJUV8v5tfVWRRiMbH_VD-WNOUxfGrlyKsd3ZizFJunqHUlKTsyXtuqO9LBHe5699_sSi4cXi_TSh1ZdM6rRKgoBKGD3Rlz5wRZovSJjhcnutJCk-o0_ZUiKz_m40]--></g></svg>