<?xml version="1.0" encoding="UTF-8" standalone="no"?><svg xmlns="http://www.w3.org/2000/svg" xmlns:xlink="http://www.w3.org/1999/xlink" contentScriptType="application/ecmascript" contentStyleType="text/css" height="985px" preserveAspectRatio="none" style="width:912px;height:985px;" version="1.1" viewBox="0 0 912 985" width="912px" zoomAndPan="magnify"><defs/><g><!--MD5=[d70803e704fa28f957658f64354507c5]
cluster Système de Gestion de Courrier--><rect fill="#FFFFFF" height="972" style="stroke:#000000;stroke-width:1.5;" width="326" x="580" y="7"/><text fill="#000000" font-family="sans-serif" font-size="14" font-weight="bold" lengthAdjust="spacing" textLength="225" x="630.5" y="23.5332">Système de Gestion de Courrier</text><ellipse cx="743.1055" cy="789.2211" fill="#FEFECE" rx="126.6055" ry="27.7211" style="stroke:#A80036;stroke-width:1.5;"/><text fill="#000000" font-family="sans-serif" font-size="14" lengthAdjust="spacing" textLength="219" x="633.6055" y="792.9496">Créer un courrier (Entrant/Sortant)</text><ellipse cx="743.097" cy="236.1194" fill="#FEFECE" rx="81.097" ry="18.6194" style="stroke:#A80036;stroke-width:1.5;"/><text fill="#000000" font-family="sans-serif" font-size="14" lengthAdjust="spacing" textLength="117" x="684.0843" y="239.9982">Valider un courrier</text><ellipse cx="742.7727" cy="316.7545" fill="#FEFECE" rx="124.2727" ry="27.2545" style="stroke:#A80036;stroke-width:1.5;"/><text fill="#000000" font-family="sans-serif" font-size="14" lengthAdjust="spacing" textLength="214" x="635.7727" y="320.4831">Transmettre / Orienter un courrier</text><ellipse cx="742.813" cy="400.7626" fill="#FEFECE" rx="94.313" ry="21.2626" style="stroke:#A80036;stroke-width:1.5;"/><text fill="#000000" font-family="sans-serif" font-size="14" lengthAdjust="spacing" textLength="148" x="668.813" y="404.4911">Répondre à un courrier</text><ellipse cx="743.0785" cy="870.2157" fill="#FEFECE" rx="79.0785" ry="18.2157" style="stroke:#A80036;stroke-width:1.5;"/><text fill="#000000" font-family="sans-serif" font-size="14" lengthAdjust="spacing" textLength="112" x="685.6751" y="874.3395">Numériser &amp; OCR</text><ellipse cx="742.9267" cy="942.7853" fill="#FEFECE" rx="84.4267" ry="19.2853" style="stroke:#A80036;stroke-width:1.5;"/><text fill="#000000" font-family="sans-serif" font-size="14" lengthAdjust="spacing" textLength="125" x="680.4267" y="946.5139">Archiver un courrier</text><ellipse cx="742.8753" cy="479.1751" fill="#FEFECE" rx="93.8753" ry="21.1751" style="stroke:#A80036;stroke-width:1.5;"/><text fill="#000000" font-family="sans-serif" font-size="14" lengthAdjust="spacing" textLength="147" x="669.3753" y="482.9036">Rechercher un courrier</text><ellipse cx="743.1926" cy="555.0385" fill="#FEFECE" rx="85.6926" ry="19.5385" style="stroke:#A80036;stroke-width:1.5;"/><text fill="#000000" font-family="sans-serif" font-size="14" lengthAdjust="spacing" textLength="128" x="679.1926" y="558.767">Consulter les détails</text><ellipse cx="743.1904" cy="630.9381" fill="#FEFECE" rx="95.1904" ry="21.4381" style="stroke:#A80036;stroke-width:1.5;"/><text fill="#000000" font-family="sans-serif" font-size="14" lengthAdjust="spacing" textLength="150" x="668.1904" y="634.6666">Ajouter un commentaire</text><ellipse cx="742.7516" cy="706.9503" fill="#FEFECE" rx="82.7516" ry="18.9503" style="stroke:#A80036;stroke-width:1.5;"/><text fill="#000000" font-family="sans-serif" font-size="14" lengthAdjust="spacing" textLength="121" x="682.2516" y="710.6788">Messagerie interne</text><ellipse cx="742.9661" cy="62.7932" fill="#FEFECE" rx="86.9661" ry="19.7932" style="stroke:#A80036;stroke-width:1.5;"/><text fill="#000000" font-family="sans-serif" font-size="14" lengthAdjust="spacing" textLength="131" x="677.4661" y="66.5217">Gérer les utilisateurs</text><ellipse cx="742.8995" cy="149.7799" fill="#FEFECE" rx="146.8995" ry="31.7799" style="stroke:#A80036;stroke-width:1.5;"/><text fill="#000000" font-family="sans-serif" font-size="14" lengthAdjust="spacing" textLength="262" x="611.8995" y="153.5084">Gérer l'organisation (Structures/Services)</text><!--MD5=[97ab183161fd5d1db7fba7485cf76add]
entity Admin--><ellipse cx="51.5" cy="119.5" fill="#FEFECE" rx="8" ry="8" style="stroke:#A80036;stroke-width:1.5;"/><path d="M51.5,127.5 L51.5,154.5 M38.5,135.5 L64.5,135.5 M51.5,154.5 L38.5,169.5 M51.5,154.5 L64.5,169.5 " fill="none" style="stroke:#A80036;stroke-width:1.5;"/><text fill="#000000" font-family="sans-serif" font-size="14" lengthAdjust="spacing" textLength="91" x="6" y="186.5332">Administrateur</text><!--MD5=[4316dd09486c75a8f2d249859735a9c0]
entity Chef--><ellipse cx="261" cy="249.5" fill="#FEFECE" rx="8" ry="8" style="stroke:#A80036;stroke-width:1.5;"/><path d="M261,257.5 L261,284.5 M248,265.5 L274,265.5 M261,284.5 L248,299.5 M261,284.5 L274,299.5 " fill="none" style="stroke:#A80036;stroke-width:1.5;"/><text fill="#000000" font-family="sans-serif" font-size="14" lengthAdjust="spacing" textLength="208" x="157" y="316.5332">Chef (Général/Structure/Service)</text><!--MD5=[7ae43210c47abf7d22de5a1d6f87a8a1]
entity Secretaire--><ellipse cx="261" cy="800.5" fill="#FEFECE" rx="8" ry="8" style="stroke:#A80036;stroke-width:1.5;"/><path d="M261,808.5 L261,835.5 M248,816.5 L274,816.5 M261,835.5 L248,850.5 M261,835.5 L274,850.5 " fill="none" style="stroke:#A80036;stroke-width:1.5;"/><text fill="#000000" font-family="sans-serif" font-size="14" lengthAdjust="spacing" textLength="65" x="228.5" y="867.5332">Secrétaire</text><!--MD5=[9cb65aab968679016cabe6121c7526ca]
entity Agent--><ellipse cx="480.5" cy="524.5" fill="#FEFECE" rx="8" ry="8" style="stroke:#A80036;stroke-width:1.5;"/><path d="M480.5,532.5 L480.5,559.5 M467.5,540.5 L493.5,540.5 M480.5,559.5 L467.5,574.5 M480.5,559.5 L493.5,574.5 " fill="none" style="stroke:#A80036;stroke-width:1.5;"/><text fill="#000000" font-family="sans-serif" font-size="14" lengthAdjust="spacing" textLength="111" x="425" y="591.5332">Utilisateur / Agent</text><!--MD5=[c7e6f9e2e99760f9b3eca79f9546e85a]
link Agent to UC7--><path d="M536.01,531.05 C547.75,526.36 560.19,521.74 572,518 C602.29,508.4 636.31,500.12 665.91,493.69 " fill="none" id="Agent-to-UC7" style="stroke:#A80036;stroke-width:1.0;"/><polygon fill="#A80036" points="671,492.59,661.3576,490.5838,666.1131,493.6474,663.0495,498.4029,671,492.59" style="stroke:#A80036;stroke-width:1.0;"/><!--MD5=[673bac28b9632c5e368d90566ccb9efd]
link Agent to UC8--><path d="M536.11,555 C569.73,555 613.65,555 652.29,555 " fill="none" id="Agent-to-UC8" style="stroke:#A80036;stroke-width:1.0;"/><polygon fill="#A80036" points="657.46,555,648.46,551,652.46,555,648.46,559,657.46,555" style="stroke:#A80036;stroke-width:1.0;"/><!--MD5=[966843aefe58c534aa6310edbe2d8129]
link Agent to UC9--><path d="M536.01,578.95 C547.75,583.64 560.19,588.26 572,592 C601.88,601.47 635.39,609.65 664.71,616.05 " fill="none" id="Agent-to-UC9" style="stroke:#A80036;stroke-width:1.0;"/><polygon fill="#A80036" points="669.76,617.14,661.8095,611.3271,664.8731,616.0826,660.1176,619.1462,669.76,617.14" style="stroke:#A80036;stroke-width:1.0;"/><!--MD5=[41a5c11f94052bd16e9a08a5c6385dd4]
link Agent to UC10--><path d="M503.21,595.03 C519,620.36 542.71,651.67 572,670 C597.78,686.13 629.57,695.3 658.66,700.48 " fill="none" id="Agent-to-UC10" style="stroke:#A80036;stroke-width:1.0;"/><polygon fill="#A80036" points="663.68,701.34,655.4831,695.8801,658.7515,700.4972,654.1345,703.7657,663.68,701.34" style="stroke:#A80036;stroke-width:1.0;"/><!--MD5=[b072b99f968e4cfd7f571f764aa09424]
link Agent to UC4--><path d="M503.45,514.8 C519.27,489.56 542.92,458.43 572,440 C595.36,425.2 623.68,416 650.46,410.28 " fill="none" id="Agent-to-UC4" style="stroke:#A80036;stroke-width:1.0;"/><polygon fill="#A80036" points="655.44,409.25,645.8219,407.1304,650.541,410.2498,647.4216,414.9689,655.44,409.25" style="stroke:#A80036;stroke-width:1.0;"/><!--MD5=[66bd2f12c582c2290721ea713ee46bb1]
link Secretaire to UC1--><path d="M293.87,828.21 C359.2,822.49 511.36,809.18 620.24,799.65 " fill="none" id="Secretaire-to-UC1" style="stroke:#A80036;stroke-width:1.0;"/><polygon fill="#A80036" points="625.39,799.2,616.0706,796.0143,620.4097,799.6436,616.7804,803.9828,625.39,799.2" style="stroke:#A80036;stroke-width:1.0;"/><!--MD5=[548796430e19d2812a037bd092c83de2]
link Secretaire to UC5--><path d="M293.87,833.59 C368.38,839.64 555.79,854.87 663.17,863.6 " fill="none" id="Secretaire-to-UC5" style="stroke:#A80036;stroke-width:1.0;"/><polygon fill="#A80036" points="668.22,864.01,659.5698,859.3011,663.2361,863.609,658.9282,867.2753,668.22,864.01" style="stroke:#A80036;stroke-width:1.0;"/><!--MD5=[521bf92a9f2ef7f1aef2a892fd489709]
link Secretaire to UC6--><path d="M293.65,838.71 C349.7,852.34 470.11,881.45 572,905 C606.26,912.92 644.47,921.48 675.98,928.47 " fill="none" id="Secretaire-to-UC6" style="stroke:#A80036;stroke-width:1.0;"/><polygon fill="#A80036" points="680.97,929.58,673.052,923.7229,676.0891,928.4953,671.3166,931.5324,680.97,929.58" style="stroke:#A80036;stroke-width:1.0;"/><!--MD5=[9204683f905411dfc3246bc18de7e8ef]
link Secretaire to Agent--><path d="M293.63,790.87 C330.92,743.55 393.13,664.6 435.21,611.21 " fill="none" id="Secretaire-to-Agent" style="stroke:#A80036;stroke-width:1.0;"/><polygon fill="none" points="429.96,606.56,447.84,595.18,440.95,615.22,429.96,606.56" style="stroke:#A80036;stroke-width:1.0;"/><!--MD5=[a35416ed216fdbbe72b8398243cf212c]
link Chef to UC2--><path d="M365.27,270.53 C454.24,262.38 580.84,250.77 662.21,243.31 " fill="none" id="Chef-to-UC2" style="stroke:#A80036;stroke-width:1.0;"/><polygon fill="#A80036" points="667.5,242.83,658.1724,239.6685,662.5209,243.2865,658.9028,247.6351,667.5,242.83" style="stroke:#A80036;stroke-width:1.0;"/><!--MD5=[e32ffd00f6de4edbf2d0b115b78976df]
link Chef to UC3--><path d="M365.27,287.96 C439.95,293.72 541.14,301.52 619.84,307.58 " fill="none" id="Chef-to-UC3" style="stroke:#A80036;stroke-width:1.0;"/><polygon fill="#A80036" points="625,307.98,616.322,303.3224,620.0138,307.6085,615.7277,311.3003,625,307.98" style="stroke:#A80036;stroke-width:1.0;"/><!--MD5=[5c19859a755b63b307c8feb0ad07dde3]
link Chef to Agent--><path d="M293.86,320.28 C331.1,367.37 392.96,445.59 434.95,498.67 " fill="none" id="Chef-to-Agent" style="stroke:#A80036;stroke-width:1.0;"/><polygon fill="none" points="440.64,494.58,447.56,514.61,429.66,503.27,440.64,494.58" style="stroke:#A80036;stroke-width:1.0;"/><!--MD5=[8f16c34dc1dc3f309d315c618429d717]
link Admin to UC11--><path d="M97.21,137.41 C115.61,132.62 137.21,127.48 157,124 C331.66,93.32 538.57,76.19 653.59,68.35 " fill="none" id="Admin-to-UC11" style="stroke:#A80036;stroke-width:1.0;"/><polygon fill="#A80036" points="658.66,68.01,649.4164,64.6105,653.6708,68.3388,649.9425,72.5932,658.66,68.01" style="stroke:#A80036;stroke-width:1.0;"/><!--MD5=[c31037f15156d2a01222dbda8c8cc7ec]
link Admin to UC12--><path d="M97.21,150 C195.22,150 432.81,150 590.58,150 " fill="none" id="Admin-to-UC12" style="stroke:#A80036;stroke-width:1.0;"/><polygon fill="#A80036" points="595.69,150,586.69,146,590.69,150,586.69,154,595.69,150" style="stroke:#A80036;stroke-width:1.0;"/><!--MD5=[aa173b8a8ddd7bad967e34c697d18d96]
link Admin to Chef--><path d="M97.01,177.89 C120.88,192.84 151.03,211.73 178.9,229.19 " fill="none" id="Admin-to-Chef" style="stroke:#A80036;stroke-width:1.0;"/><polygon fill="none" points="182.64,223.27,195.87,239.82,175.21,235.14,182.64,223.27" style="stroke:#A80036;stroke-width:1.0;"/><!--MD5=[06fcfd97c51da16c0a2906d1ea0d1edb]
@startuml use_cases_courrier

skinparam shadowing false
left to right direction

' - - - Acteurs - - -

actor "Administrateur" as Admin
actor "Chef (Général/Structure/Service)" as Chef
actor "Secrétaire" as Secretaire
actor "Utilisateur / Agent" as Agent

' - - - Système - - -

rectangle "Système de Gestion de Courrier" {
    
    ' Gestion des Courriers
    usecase "Créer un courrier (Entrant/Sortant)" as UC1
    usecase "Valider un courrier" as UC2
    usecase "Transmettre / Orienter un courrier" as UC3
    usecase "Répondre à un courrier" as UC4
    usecase "Numériser & OCR" as UC5
    usecase "Archiver un courrier" as UC6
    
    ' Consultation & Recherche
    usecase "Rechercher un courrier" as UC7
    usecase "Consulter les détails" as UC8
    
    ' Communication
    usecase "Ajouter un commentaire" as UC9
    usecase "Messagerie interne" as UC10
    
    ' Administration
    usecase "Gérer les utilisateurs" as UC11
    usecase "Gérer l'organisation (Structures/Services)" as UC12
}

' - - - Relations - - -

' Utilisateur de base (Agent)
Agent - -> UC7
Agent - -> UC8
Agent - -> UC9
Agent - -> UC10
Agent - -> UC4

' Secrétaire
Secretaire - -> UC1
Secretaire - -> UC5
Secretaire - -> UC6
Secretaire - -|> Agent

' Chef
Chef - -> UC2
Chef - -> UC3
Chef - -|> Agent

' Admin
Admin - -> UC11
Admin - -> UC12
Admin - -|> Chef

@enduml

@startuml use_cases_courrier

skinparam shadowing false
left to right direction


actor "Administrateur" as Admin
actor "Chef (Général/Structure/Service)" as Chef
actor "Secrétaire" as Secretaire
actor "Utilisateur / Agent" as Agent


rectangle "Système de Gestion de Courrier" {
    
    usecase "Créer un courrier (Entrant/Sortant)" as UC1
    usecase "Valider un courrier" as UC2
    usecase "Transmettre / Orienter un courrier" as UC3
    usecase "Répondre à un courrier" as UC4
    usecase "Numériser & OCR" as UC5
    usecase "Archiver un courrier" as UC6
    
    usecase "Rechercher un courrier" as UC7
    usecase "Consulter les détails" as UC8
    
    usecase "Ajouter un commentaire" as UC9
    usecase "Messagerie interne" as UC10
    
    usecase "Gérer les utilisateurs" as UC11
    usecase "Gérer l'organisation (Structures/Services)" as UC12
}


Agent - -> UC7
Agent - -> UC8
Agent - -> UC9
Agent - -> UC10
Agent - -> UC4

Secretaire - -> UC1
Secretaire - -> UC5
Secretaire - -> UC6
Secretaire - -|> Agent

Chef - -> UC2
Chef - -> UC3
Chef - -|> Agent

Admin - -> UC11
Admin - -> UC12
Admin - -|> Chef

@enduml

PlantUML version 1.2021.00(Sun Jan 10 11:25:05 CET 2021)
(MIT source distribution)
Java Runtime: Java(TM) SE Runtime Environment
JVM: Java HotSpot(TM) 64-Bit Server VM
Default Encoding: UTF-8
Language: fr
Country: FR
--></g></svg>